%TF.GenerationSoftware,KiCad,Pcbnew,9.0.0*%
%TF.CreationDate,2025-07-01T12:07:16+05:30*%
%TF.ProjectId,dual dc,6475616c-2064-4632-9e6b-696361645f70,rev?*%
%TF.SameCoordinates,Original*%
%TF.FileFunction,Legend,Top*%
%TF.FilePolarity,Positive*%
%FSLAX46Y46*%
G04 Gerber Fmt 4.6, Leading zero omitted, Abs format (unit mm)*
G04 Created by KiCad (PCBNEW 9.0.0) date 2025-07-01 12:07:16*
%MOMM*%
%LPD*%
G01*
G04 APERTURE LIST*
%ADD10C,0.150000*%
%ADD11C,0.120000*%
G04 APERTURE END LIST*
D10*
X191666666Y-131894819D02*
X191666666Y-132609104D01*
X191666666Y-132609104D02*
X191619047Y-132751961D01*
X191619047Y-132751961D02*
X191523809Y-132847200D01*
X191523809Y-132847200D02*
X191380952Y-132894819D01*
X191380952Y-132894819D02*
X191285714Y-132894819D01*
X192095238Y-131990057D02*
X192142857Y-131942438D01*
X192142857Y-131942438D02*
X192238095Y-131894819D01*
X192238095Y-131894819D02*
X192476190Y-131894819D01*
X192476190Y-131894819D02*
X192571428Y-131942438D01*
X192571428Y-131942438D02*
X192619047Y-131990057D01*
X192619047Y-131990057D02*
X192666666Y-132085295D01*
X192666666Y-132085295D02*
X192666666Y-132180533D01*
X192666666Y-132180533D02*
X192619047Y-132323390D01*
X192619047Y-132323390D02*
X192047619Y-132894819D01*
X192047619Y-132894819D02*
X192666666Y-132894819D01*
X119730476Y-37134819D02*
X119730476Y-36134819D01*
X119730476Y-36134819D02*
X120063809Y-36849104D01*
X120063809Y-36849104D02*
X120397142Y-36134819D01*
X120397142Y-36134819D02*
X120397142Y-37134819D01*
X120778095Y-36134819D02*
X121397142Y-36134819D01*
X121397142Y-36134819D02*
X121063809Y-36515771D01*
X121063809Y-36515771D02*
X121206666Y-36515771D01*
X121206666Y-36515771D02*
X121301904Y-36563390D01*
X121301904Y-36563390D02*
X121349523Y-36611009D01*
X121349523Y-36611009D02*
X121397142Y-36706247D01*
X121397142Y-36706247D02*
X121397142Y-36944342D01*
X121397142Y-36944342D02*
X121349523Y-37039580D01*
X121349523Y-37039580D02*
X121301904Y-37087200D01*
X121301904Y-37087200D02*
X121206666Y-37134819D01*
X121206666Y-37134819D02*
X120920952Y-37134819D01*
X120920952Y-37134819D02*
X120825714Y-37087200D01*
X120825714Y-37087200D02*
X120778095Y-37039580D01*
X153185476Y-36807319D02*
X153185476Y-35807319D01*
X153185476Y-35807319D02*
X153518809Y-36521604D01*
X153518809Y-36521604D02*
X153852142Y-35807319D01*
X153852142Y-35807319D02*
X153852142Y-36807319D01*
X154756904Y-36140652D02*
X154756904Y-36807319D01*
X154518809Y-35759700D02*
X154280714Y-36473985D01*
X154280714Y-36473985D02*
X154899761Y-36473985D01*
X66333333Y-87609580D02*
X66285714Y-87657200D01*
X66285714Y-87657200D02*
X66142857Y-87704819D01*
X66142857Y-87704819D02*
X66047619Y-87704819D01*
X66047619Y-87704819D02*
X65904762Y-87657200D01*
X65904762Y-87657200D02*
X65809524Y-87561961D01*
X65809524Y-87561961D02*
X65761905Y-87466723D01*
X65761905Y-87466723D02*
X65714286Y-87276247D01*
X65714286Y-87276247D02*
X65714286Y-87133390D01*
X65714286Y-87133390D02*
X65761905Y-86942914D01*
X65761905Y-86942914D02*
X65809524Y-86847676D01*
X65809524Y-86847676D02*
X65904762Y-86752438D01*
X65904762Y-86752438D02*
X66047619Y-86704819D01*
X66047619Y-86704819D02*
X66142857Y-86704819D01*
X66142857Y-86704819D02*
X66285714Y-86752438D01*
X66285714Y-86752438D02*
X66333333Y-86800057D01*
X67285714Y-87704819D02*
X66714286Y-87704819D01*
X67000000Y-87704819D02*
X67000000Y-86704819D01*
X67000000Y-86704819D02*
X66904762Y-86847676D01*
X66904762Y-86847676D02*
X66809524Y-86942914D01*
X66809524Y-86942914D02*
X66714286Y-86990533D01*
X125261905Y-146954819D02*
X125261905Y-145954819D01*
X125261905Y-145954819D02*
X125500000Y-145954819D01*
X125500000Y-145954819D02*
X125642857Y-146002438D01*
X125642857Y-146002438D02*
X125738095Y-146097676D01*
X125738095Y-146097676D02*
X125785714Y-146192914D01*
X125785714Y-146192914D02*
X125833333Y-146383390D01*
X125833333Y-146383390D02*
X125833333Y-146526247D01*
X125833333Y-146526247D02*
X125785714Y-146716723D01*
X125785714Y-146716723D02*
X125738095Y-146811961D01*
X125738095Y-146811961D02*
X125642857Y-146907200D01*
X125642857Y-146907200D02*
X125500000Y-146954819D01*
X125500000Y-146954819D02*
X125261905Y-146954819D01*
X126690476Y-146288152D02*
X126690476Y-146954819D01*
X126452381Y-145907200D02*
X126214286Y-146621485D01*
X126214286Y-146621485D02*
X126833333Y-146621485D01*
X115658095Y-140854819D02*
X115658095Y-139854819D01*
X116229523Y-140854819D02*
X115800952Y-140283390D01*
X116229523Y-139854819D02*
X115658095Y-140426247D01*
X71666666Y-27204819D02*
X71666666Y-27919104D01*
X71666666Y-27919104D02*
X71619047Y-28061961D01*
X71619047Y-28061961D02*
X71523809Y-28157200D01*
X71523809Y-28157200D02*
X71380952Y-28204819D01*
X71380952Y-28204819D02*
X71285714Y-28204819D01*
X72666666Y-28204819D02*
X72095238Y-28204819D01*
X72380952Y-28204819D02*
X72380952Y-27204819D01*
X72380952Y-27204819D02*
X72285714Y-27347676D01*
X72285714Y-27347676D02*
X72190476Y-27442914D01*
X72190476Y-27442914D02*
X72095238Y-27490533D01*
X180583605Y-122954819D02*
X180583605Y-121954819D01*
X180583605Y-121954819D02*
X180821700Y-121954819D01*
X180821700Y-121954819D02*
X180964557Y-122002438D01*
X180964557Y-122002438D02*
X181059795Y-122097676D01*
X181059795Y-122097676D02*
X181107414Y-122192914D01*
X181107414Y-122192914D02*
X181155033Y-122383390D01*
X181155033Y-122383390D02*
X181155033Y-122526247D01*
X181155033Y-122526247D02*
X181107414Y-122716723D01*
X181107414Y-122716723D02*
X181059795Y-122811961D01*
X181059795Y-122811961D02*
X180964557Y-122907200D01*
X180964557Y-122907200D02*
X180821700Y-122954819D01*
X180821700Y-122954819D02*
X180583605Y-122954819D01*
X182107414Y-122954819D02*
X181535986Y-122954819D01*
X181821700Y-122954819D02*
X181821700Y-121954819D01*
X181821700Y-121954819D02*
X181726462Y-122097676D01*
X181726462Y-122097676D02*
X181631224Y-122192914D01*
X181631224Y-122192914D02*
X181535986Y-122240533D01*
X153479795Y-84854819D02*
X153479795Y-83854819D01*
X154051223Y-84854819D02*
X153622652Y-84283390D01*
X154051223Y-83854819D02*
X153479795Y-84426247D01*
X151261905Y-118954819D02*
X151261905Y-117954819D01*
X151261905Y-117954819D02*
X151500000Y-117954819D01*
X151500000Y-117954819D02*
X151642857Y-118002438D01*
X151642857Y-118002438D02*
X151738095Y-118097676D01*
X151738095Y-118097676D02*
X151785714Y-118192914D01*
X151785714Y-118192914D02*
X151833333Y-118383390D01*
X151833333Y-118383390D02*
X151833333Y-118526247D01*
X151833333Y-118526247D02*
X151785714Y-118716723D01*
X151785714Y-118716723D02*
X151738095Y-118811961D01*
X151738095Y-118811961D02*
X151642857Y-118907200D01*
X151642857Y-118907200D02*
X151500000Y-118954819D01*
X151500000Y-118954819D02*
X151261905Y-118954819D01*
X152166667Y-117954819D02*
X152785714Y-117954819D01*
X152785714Y-117954819D02*
X152452381Y-118335771D01*
X152452381Y-118335771D02*
X152595238Y-118335771D01*
X152595238Y-118335771D02*
X152690476Y-118383390D01*
X152690476Y-118383390D02*
X152738095Y-118431009D01*
X152738095Y-118431009D02*
X152785714Y-118526247D01*
X152785714Y-118526247D02*
X152785714Y-118764342D01*
X152785714Y-118764342D02*
X152738095Y-118859580D01*
X152738095Y-118859580D02*
X152690476Y-118907200D01*
X152690476Y-118907200D02*
X152595238Y-118954819D01*
X152595238Y-118954819D02*
X152309524Y-118954819D01*
X152309524Y-118954819D02*
X152214286Y-118907200D01*
X152214286Y-118907200D02*
X152166667Y-118859580D01*
X143658095Y-128354819D02*
X143658095Y-127354819D01*
X144229523Y-128354819D02*
X143800952Y-127783390D01*
X144229523Y-127354819D02*
X143658095Y-127926247D01*
X189341905Y-136954819D02*
X189341905Y-135954819D01*
X189341905Y-135954819D02*
X189580000Y-135954819D01*
X189580000Y-135954819D02*
X189722857Y-136002438D01*
X189722857Y-136002438D02*
X189818095Y-136097676D01*
X189818095Y-136097676D02*
X189865714Y-136192914D01*
X189865714Y-136192914D02*
X189913333Y-136383390D01*
X189913333Y-136383390D02*
X189913333Y-136526247D01*
X189913333Y-136526247D02*
X189865714Y-136716723D01*
X189865714Y-136716723D02*
X189818095Y-136811961D01*
X189818095Y-136811961D02*
X189722857Y-136907200D01*
X189722857Y-136907200D02*
X189580000Y-136954819D01*
X189580000Y-136954819D02*
X189341905Y-136954819D01*
X190294286Y-136050057D02*
X190341905Y-136002438D01*
X190341905Y-136002438D02*
X190437143Y-135954819D01*
X190437143Y-135954819D02*
X190675238Y-135954819D01*
X190675238Y-135954819D02*
X190770476Y-136002438D01*
X190770476Y-136002438D02*
X190818095Y-136050057D01*
X190818095Y-136050057D02*
X190865714Y-136145295D01*
X190865714Y-136145295D02*
X190865714Y-136240533D01*
X190865714Y-136240533D02*
X190818095Y-136383390D01*
X190818095Y-136383390D02*
X190246667Y-136954819D01*
X190246667Y-136954819D02*
X190865714Y-136954819D01*
X154738095Y-107354819D02*
X154738095Y-106354819D01*
X155309523Y-107354819D02*
X154880952Y-106783390D01*
X155309523Y-106354819D02*
X154738095Y-106926247D01*
X230666666Y-102954819D02*
X230666666Y-103669104D01*
X230666666Y-103669104D02*
X230619047Y-103811961D01*
X230619047Y-103811961D02*
X230523809Y-103907200D01*
X230523809Y-103907200D02*
X230380952Y-103954819D01*
X230380952Y-103954819D02*
X230285714Y-103954819D01*
X231571428Y-103288152D02*
X231571428Y-103954819D01*
X231333333Y-102907200D02*
X231095238Y-103621485D01*
X231095238Y-103621485D02*
X231714285Y-103621485D01*
D11*
%TO.C,J2*%
X191305000Y-133315000D02*
X192000000Y-133315000D01*
X191305000Y-134000000D02*
X191305000Y-133315000D01*
X191305000Y-134685000D02*
X191305000Y-135560000D01*
X191305000Y-134685000D02*
X191391724Y-134685000D01*
X191305000Y-135560000D02*
X191605507Y-135560000D01*
X192394493Y-135560000D02*
X192695000Y-135560000D01*
X192608276Y-134685000D02*
X192695000Y-134685000D01*
X192695000Y-134685000D02*
X192695000Y-135560000D01*
%TO.C,M3*%
X115340000Y-37680000D02*
X115340000Y-47720000D01*
X115340000Y-37680000D02*
X125740000Y-37680000D01*
X115340000Y-40700000D02*
X125740000Y-40700000D01*
X115340000Y-45600000D02*
X125740000Y-45600000D01*
X115340000Y-47100000D02*
X125740000Y-47100000D01*
X115340000Y-47720000D02*
X117700000Y-47720000D01*
X118300000Y-47720000D02*
X125740000Y-47720000D01*
X121713000Y-44140000D02*
X121669000Y-44183000D01*
X121940000Y-44367000D02*
X121896000Y-44410000D01*
X124264000Y-41589000D02*
X124220000Y-41633000D01*
X124491000Y-41816000D02*
X124447000Y-41860000D01*
X125740000Y-37680000D02*
X125740000Y-47720000D01*
X116220000Y-43540000D02*
G75*
G02*
X116219794Y-42460679I1780000J540000D01*
G01*
X117460000Y-41220000D02*
G75*
G02*
X118539321Y-41219794I540000J-1780000D01*
G01*
X118540000Y-44780000D02*
G75*
G02*
X117460679Y-44780206I-540000J1780013D01*
G01*
X119780000Y-42460000D02*
G75*
G02*
X119780206Y-43539321I-1780013J-540000D01*
G01*
X124940000Y-43000000D02*
G75*
G02*
X121220000Y-43000000I-1860000J0D01*
G01*
X121220000Y-43000000D02*
G75*
G02*
X124940000Y-43000000I1860000J0D01*
G01*
X118440000Y-48330000D02*
X117560000Y-48330000D01*
X118000000Y-47720000D01*
X118440000Y-48330000D01*
G36*
X118440000Y-48330000D02*
G01*
X117560000Y-48330000D01*
X118000000Y-47720000D01*
X118440000Y-48330000D01*
G37*
%TO.C,M4*%
X148795000Y-37352500D02*
X148795000Y-47392500D01*
X148795000Y-37352500D02*
X159195000Y-37352500D01*
X148795000Y-40372500D02*
X159195000Y-40372500D01*
X148795000Y-45272500D02*
X159195000Y-45272500D01*
X148795000Y-46772500D02*
X159195000Y-46772500D01*
X148795000Y-47392500D02*
X151155000Y-47392500D01*
X151755000Y-47392500D02*
X159195000Y-47392500D01*
X155168000Y-43812500D02*
X155124000Y-43855500D01*
X155395000Y-44039500D02*
X155351000Y-44082500D01*
X157719000Y-41261500D02*
X157675000Y-41305500D01*
X157946000Y-41488500D02*
X157902000Y-41532500D01*
X159195000Y-37352500D02*
X159195000Y-47392500D01*
X149675000Y-43212500D02*
G75*
G02*
X149674794Y-42133179I1780000J540000D01*
G01*
X150915000Y-40892500D02*
G75*
G02*
X151994321Y-40892294I540000J-1780000D01*
G01*
X151995000Y-44452500D02*
G75*
G02*
X150915679Y-44452706I-540000J1780013D01*
G01*
X153235000Y-42132500D02*
G75*
G02*
X153235206Y-43211821I-1780013J-540000D01*
G01*
X158395000Y-42672500D02*
G75*
G02*
X154675000Y-42672500I-1860000J0D01*
G01*
X154675000Y-42672500D02*
G75*
G02*
X158395000Y-42672500I1860000J0D01*
G01*
X151895000Y-48002500D02*
X151015000Y-48002500D01*
X151455000Y-47392500D01*
X151895000Y-48002500D01*
G36*
X151895000Y-48002500D02*
G01*
X151015000Y-48002500D01*
X151455000Y-47392500D01*
X151895000Y-48002500D01*
G37*
%TO.C,C1*%
X44971127Y-97225000D02*
X48971127Y-97225000D01*
X46971127Y-95225000D02*
X46971127Y-99225000D01*
X66500000Y-88420000D02*
X66500000Y-128580000D01*
X66540000Y-88420000D02*
X66540000Y-128580000D01*
X66580000Y-88420000D02*
X66580000Y-128580000D01*
X66620000Y-88420000D02*
X66620000Y-128580000D01*
X66660000Y-88420000D02*
X66660000Y-128580000D01*
X66700000Y-88420000D02*
X66700000Y-128580000D01*
X66740000Y-88421000D02*
X66740000Y-128579000D01*
X66780000Y-88421000D02*
X66780000Y-128579000D01*
X66820000Y-88422000D02*
X66820000Y-128578000D01*
X66860000Y-88423000D02*
X66860000Y-128577000D01*
X66900000Y-88423000D02*
X66900000Y-128577000D01*
X66940000Y-88424000D02*
X66940000Y-128576000D01*
X66980000Y-88425000D02*
X66980000Y-128575000D01*
X67020000Y-88426000D02*
X67020000Y-128574000D01*
X67060000Y-88427000D02*
X67060000Y-128573000D01*
X67100000Y-88428000D02*
X67100000Y-128572000D01*
X67140000Y-88430000D02*
X67140000Y-128570000D01*
X67180000Y-88431000D02*
X67180000Y-128569000D01*
X67221000Y-88432000D02*
X67221000Y-128568000D01*
X67261000Y-88434000D02*
X67261000Y-128566000D01*
X67301000Y-88435000D02*
X67301000Y-128565000D01*
X67341000Y-88437000D02*
X67341000Y-128563000D01*
X67381000Y-88439000D02*
X67381000Y-128561000D01*
X67421000Y-88441000D02*
X67421000Y-128559000D01*
X67461000Y-88442000D02*
X67461000Y-128558000D01*
X67501000Y-88444000D02*
X67501000Y-128556000D01*
X67541000Y-88446000D02*
X67541000Y-128554000D01*
X67581000Y-88449000D02*
X67581000Y-128551000D01*
X67621000Y-88451000D02*
X67621000Y-128549000D01*
X67661000Y-88453000D02*
X67661000Y-128547000D01*
X67701000Y-88455000D02*
X67701000Y-128545000D01*
X67741000Y-88458000D02*
X67741000Y-128542000D01*
X67781000Y-88460000D02*
X67781000Y-128540000D01*
X67821000Y-88463000D02*
X67821000Y-128537000D01*
X67861000Y-88466000D02*
X67861000Y-128534000D01*
X67901000Y-88468000D02*
X67901000Y-128532000D01*
X67941000Y-88471000D02*
X67941000Y-128529000D01*
X67981000Y-88474000D02*
X67981000Y-128526000D01*
X68021000Y-88477000D02*
X68021000Y-128523000D01*
X68061000Y-88480000D02*
X68061000Y-128520000D01*
X68101000Y-88483000D02*
X68101000Y-128517000D01*
X68141000Y-88486000D02*
X68141000Y-128514000D01*
X68181000Y-88490000D02*
X68181000Y-128510000D01*
X68221000Y-88493000D02*
X68221000Y-128507000D01*
X68261000Y-88497000D02*
X68261000Y-128503000D01*
X68301000Y-88500000D02*
X68301000Y-128500000D01*
X68341000Y-88504000D02*
X68341000Y-128496000D01*
X68381000Y-88508000D02*
X68381000Y-128492000D01*
X68421000Y-88511000D02*
X68421000Y-128489000D01*
X68461000Y-88515000D02*
X68461000Y-128485000D01*
X68501000Y-88519000D02*
X68501000Y-128481000D01*
X68541000Y-88523000D02*
X68541000Y-128477000D01*
X68581000Y-88527000D02*
X68581000Y-128473000D01*
X68621000Y-88532000D02*
X68621000Y-128468000D01*
X68661000Y-88536000D02*
X68661000Y-128464000D01*
X68701000Y-88540000D02*
X68701000Y-128460000D01*
X68741000Y-88545000D02*
X68741000Y-128455000D01*
X68781000Y-88549000D02*
X68781000Y-128451000D01*
X68821000Y-88554000D02*
X68821000Y-128446000D01*
X68861000Y-88558000D02*
X68861000Y-128442000D01*
X68901000Y-88563000D02*
X68901000Y-128437000D01*
X68941000Y-88568000D02*
X68941000Y-128432000D01*
X68981000Y-88573000D02*
X68981000Y-128427000D01*
X69021000Y-88578000D02*
X69021000Y-128422000D01*
X69061000Y-88583000D02*
X69061000Y-128417000D01*
X69101000Y-88588000D02*
X69101000Y-128412000D01*
X69141000Y-88593000D02*
X69141000Y-128407000D01*
X69181000Y-88599000D02*
X69181000Y-128401000D01*
X69221000Y-88604000D02*
X69221000Y-128396000D01*
X69261000Y-88610000D02*
X69261000Y-106260000D01*
X69261000Y-110740000D02*
X69261000Y-128390000D01*
X69301000Y-88615000D02*
X69301000Y-106260000D01*
X69301000Y-110740000D02*
X69301000Y-128385000D01*
X69341000Y-88621000D02*
X69341000Y-106260000D01*
X69341000Y-110740000D02*
X69341000Y-128379000D01*
X69381000Y-88627000D02*
X69381000Y-106260000D01*
X69381000Y-110740000D02*
X69381000Y-128373000D01*
X69421000Y-88633000D02*
X69421000Y-106260000D01*
X69421000Y-110740000D02*
X69421000Y-128367000D01*
X69461000Y-88638000D02*
X69461000Y-106260000D01*
X69461000Y-110740000D02*
X69461000Y-128362000D01*
X69501000Y-88644000D02*
X69501000Y-106260000D01*
X69501000Y-110740000D02*
X69501000Y-128356000D01*
X69541000Y-88650000D02*
X69541000Y-106260000D01*
X69541000Y-110740000D02*
X69541000Y-128350000D01*
X69581000Y-88657000D02*
X69581000Y-106260000D01*
X69581000Y-110740000D02*
X69581000Y-128343000D01*
X69621000Y-88663000D02*
X69621000Y-106260000D01*
X69621000Y-110740000D02*
X69621000Y-128337000D01*
X69661000Y-88669000D02*
X69661000Y-106260000D01*
X69661000Y-110740000D02*
X69661000Y-128331000D01*
X69701000Y-88676000D02*
X69701000Y-106260000D01*
X69701000Y-110740000D02*
X69701000Y-128324000D01*
X69741000Y-88682000D02*
X69741000Y-106260000D01*
X69741000Y-110740000D02*
X69741000Y-128318000D01*
X69781000Y-88689000D02*
X69781000Y-106260000D01*
X69781000Y-110740000D02*
X69781000Y-128311000D01*
X69821000Y-88695000D02*
X69821000Y-106260000D01*
X69821000Y-110740000D02*
X69821000Y-128305000D01*
X69861000Y-88702000D02*
X69861000Y-106260000D01*
X69861000Y-110740000D02*
X69861000Y-128298000D01*
X69901000Y-88709000D02*
X69901000Y-106260000D01*
X69901000Y-110740000D02*
X69901000Y-128291000D01*
X69941000Y-88716000D02*
X69941000Y-106260000D01*
X69941000Y-110740000D02*
X69941000Y-128284000D01*
X69981000Y-88723000D02*
X69981000Y-106260000D01*
X69981000Y-110740000D02*
X69981000Y-128277000D01*
X70021000Y-88730000D02*
X70021000Y-106260000D01*
X70021000Y-110740000D02*
X70021000Y-128270000D01*
X70061000Y-88737000D02*
X70061000Y-106260000D01*
X70061000Y-110740000D02*
X70061000Y-128263000D01*
X70101000Y-88744000D02*
X70101000Y-106260000D01*
X70101000Y-110740000D02*
X70101000Y-128256000D01*
X70141000Y-88752000D02*
X70141000Y-106260000D01*
X70141000Y-110740000D02*
X70141000Y-128248000D01*
X70181000Y-88759000D02*
X70181000Y-106260000D01*
X70181000Y-110740000D02*
X70181000Y-128241000D01*
X70221000Y-88766000D02*
X70221000Y-106260000D01*
X70221000Y-110740000D02*
X70221000Y-128234000D01*
X70261000Y-88774000D02*
X70261000Y-106260000D01*
X70261000Y-110740000D02*
X70261000Y-128226000D01*
X70301000Y-88782000D02*
X70301000Y-106260000D01*
X70301000Y-110740000D02*
X70301000Y-128218000D01*
X70341000Y-88789000D02*
X70341000Y-106260000D01*
X70341000Y-110740000D02*
X70341000Y-128211000D01*
X70381000Y-88797000D02*
X70381000Y-106260000D01*
X70381000Y-110740000D02*
X70381000Y-128203000D01*
X70421000Y-88805000D02*
X70421000Y-106260000D01*
X70421000Y-110740000D02*
X70421000Y-128195000D01*
X70461000Y-88813000D02*
X70461000Y-106260000D01*
X70461000Y-110740000D02*
X70461000Y-128187000D01*
X70501000Y-88821000D02*
X70501000Y-106260000D01*
X70501000Y-110740000D02*
X70501000Y-128179000D01*
X70541000Y-88829000D02*
X70541000Y-106260000D01*
X70541000Y-110740000D02*
X70541000Y-128171000D01*
X70581000Y-88838000D02*
X70581000Y-106260000D01*
X70581000Y-110740000D02*
X70581000Y-128162000D01*
X70621000Y-88846000D02*
X70621000Y-106260000D01*
X70621000Y-110740000D02*
X70621000Y-128154000D01*
X70661000Y-88854000D02*
X70661000Y-106260000D01*
X70661000Y-110740000D02*
X70661000Y-128146000D01*
X70701000Y-88863000D02*
X70701000Y-106260000D01*
X70701000Y-110740000D02*
X70701000Y-128137000D01*
X70741000Y-88871000D02*
X70741000Y-106260000D01*
X70741000Y-110740000D02*
X70741000Y-128129000D01*
X70781000Y-88880000D02*
X70781000Y-106260000D01*
X70781000Y-110740000D02*
X70781000Y-128120000D01*
X70821000Y-88889000D02*
X70821000Y-106260000D01*
X70821000Y-110740000D02*
X70821000Y-128111000D01*
X70861000Y-88898000D02*
X70861000Y-106260000D01*
X70861000Y-110740000D02*
X70861000Y-128102000D01*
X70901000Y-88907000D02*
X70901000Y-106260000D01*
X70901000Y-110740000D02*
X70901000Y-128093000D01*
X70941000Y-88916000D02*
X70941000Y-106260000D01*
X70941000Y-110740000D02*
X70941000Y-128084000D01*
X70981000Y-88925000D02*
X70981000Y-106260000D01*
X70981000Y-110740000D02*
X70981000Y-128075000D01*
X71021000Y-88934000D02*
X71021000Y-106260000D01*
X71021000Y-110740000D02*
X71021000Y-128066000D01*
X71061000Y-88943000D02*
X71061000Y-106260000D01*
X71061000Y-110740000D02*
X71061000Y-128057000D01*
X71101000Y-88952000D02*
X71101000Y-106260000D01*
X71101000Y-110740000D02*
X71101000Y-128048000D01*
X71141000Y-88962000D02*
X71141000Y-106260000D01*
X71141000Y-110740000D02*
X71141000Y-128038000D01*
X71181000Y-88971000D02*
X71181000Y-106260000D01*
X71181000Y-110740000D02*
X71181000Y-128029000D01*
X71221000Y-88981000D02*
X71221000Y-106260000D01*
X71221000Y-110740000D02*
X71221000Y-128019000D01*
X71261000Y-88991000D02*
X71261000Y-106260000D01*
X71261000Y-110740000D02*
X71261000Y-128009000D01*
X71301000Y-89000000D02*
X71301000Y-106260000D01*
X71301000Y-110740000D02*
X71301000Y-128000000D01*
X71341000Y-89010000D02*
X71341000Y-106260000D01*
X71341000Y-110740000D02*
X71341000Y-127990000D01*
X71381000Y-89020000D02*
X71381000Y-106260000D01*
X71381000Y-110740000D02*
X71381000Y-127980000D01*
X71421000Y-89030000D02*
X71421000Y-106260000D01*
X71421000Y-110740000D02*
X71421000Y-127970000D01*
X71461000Y-89040000D02*
X71461000Y-106260000D01*
X71461000Y-110740000D02*
X71461000Y-127960000D01*
X71501000Y-89051000D02*
X71501000Y-106260000D01*
X71501000Y-110740000D02*
X71501000Y-127949000D01*
X71541000Y-89061000D02*
X71541000Y-106260000D01*
X71541000Y-110740000D02*
X71541000Y-127939000D01*
X71581000Y-89071000D02*
X71581000Y-106260000D01*
X71581000Y-110740000D02*
X71581000Y-127929000D01*
X71621000Y-89082000D02*
X71621000Y-106260000D01*
X71621000Y-110740000D02*
X71621000Y-127918000D01*
X71661000Y-89092000D02*
X71661000Y-106260000D01*
X71661000Y-110740000D02*
X71661000Y-127908000D01*
X71701000Y-89103000D02*
X71701000Y-106260000D01*
X71701000Y-110740000D02*
X71701000Y-127897000D01*
X71741000Y-89114000D02*
X71741000Y-106260000D01*
X71741000Y-110740000D02*
X71741000Y-127886000D01*
X71781000Y-89125000D02*
X71781000Y-106260000D01*
X71781000Y-110740000D02*
X71781000Y-127875000D01*
X71821000Y-89136000D02*
X71821000Y-106260000D01*
X71821000Y-110740000D02*
X71821000Y-127864000D01*
X71861000Y-89147000D02*
X71861000Y-106260000D01*
X71861000Y-110740000D02*
X71861000Y-127853000D01*
X71901000Y-89158000D02*
X71901000Y-106260000D01*
X71901000Y-110740000D02*
X71901000Y-127842000D01*
X71941000Y-89169000D02*
X71941000Y-106260000D01*
X71941000Y-110740000D02*
X71941000Y-127831000D01*
X71981000Y-89180000D02*
X71981000Y-106260000D01*
X71981000Y-110740000D02*
X71981000Y-127820000D01*
X72021000Y-89192000D02*
X72021000Y-106260000D01*
X72021000Y-110740000D02*
X72021000Y-127808000D01*
X72061000Y-89203000D02*
X72061000Y-106260000D01*
X72061000Y-110740000D02*
X72061000Y-127797000D01*
X72101000Y-89215000D02*
X72101000Y-106260000D01*
X72101000Y-110740000D02*
X72101000Y-127785000D01*
X72141000Y-89226000D02*
X72141000Y-106260000D01*
X72141000Y-110740000D02*
X72141000Y-127774000D01*
X72181000Y-89238000D02*
X72181000Y-106260000D01*
X72181000Y-110740000D02*
X72181000Y-127762000D01*
X72221000Y-89250000D02*
X72221000Y-106260000D01*
X72221000Y-110740000D02*
X72221000Y-127750000D01*
X72261000Y-89262000D02*
X72261000Y-106260000D01*
X72261000Y-110740000D02*
X72261000Y-127738000D01*
X72301000Y-89274000D02*
X72301000Y-106260000D01*
X72301000Y-110740000D02*
X72301000Y-127726000D01*
X72341000Y-89286000D02*
X72341000Y-106260000D01*
X72341000Y-110740000D02*
X72341000Y-127714000D01*
X72381000Y-89298000D02*
X72381000Y-106260000D01*
X72381000Y-110740000D02*
X72381000Y-127702000D01*
X72421000Y-89310000D02*
X72421000Y-106260000D01*
X72421000Y-110740000D02*
X72421000Y-127690000D01*
X72461000Y-89323000D02*
X72461000Y-106260000D01*
X72461000Y-110740000D02*
X72461000Y-127677000D01*
X72501000Y-89335000D02*
X72501000Y-106260000D01*
X72501000Y-110740000D02*
X72501000Y-127665000D01*
X72541000Y-89348000D02*
X72541000Y-106260000D01*
X72541000Y-110740000D02*
X72541000Y-127652000D01*
X72581000Y-89360000D02*
X72581000Y-106260000D01*
X72581000Y-110740000D02*
X72581000Y-127640000D01*
X72621000Y-89373000D02*
X72621000Y-106260000D01*
X72621000Y-110740000D02*
X72621000Y-127627000D01*
X72661000Y-89386000D02*
X72661000Y-106260000D01*
X72661000Y-110740000D02*
X72661000Y-127614000D01*
X72701000Y-89399000D02*
X72701000Y-106260000D01*
X72701000Y-110740000D02*
X72701000Y-127601000D01*
X72741000Y-89412000D02*
X72741000Y-106260000D01*
X72741000Y-110740000D02*
X72741000Y-127588000D01*
X72781000Y-89425000D02*
X72781000Y-106260000D01*
X72781000Y-110740000D02*
X72781000Y-127575000D01*
X72821000Y-89438000D02*
X72821000Y-106260000D01*
X72821000Y-110740000D02*
X72821000Y-127562000D01*
X72861000Y-89451000D02*
X72861000Y-106260000D01*
X72861000Y-110740000D02*
X72861000Y-127549000D01*
X72901000Y-89465000D02*
X72901000Y-106260000D01*
X72901000Y-110740000D02*
X72901000Y-127535000D01*
X72941000Y-89478000D02*
X72941000Y-106260000D01*
X72941000Y-110740000D02*
X72941000Y-127522000D01*
X72981000Y-89492000D02*
X72981000Y-106260000D01*
X72981000Y-110740000D02*
X72981000Y-127508000D01*
X73021000Y-89505000D02*
X73021000Y-106260000D01*
X73021000Y-110740000D02*
X73021000Y-127495000D01*
X73061000Y-89519000D02*
X73061000Y-106260000D01*
X73061000Y-110740000D02*
X73061000Y-127481000D01*
X73101000Y-89533000D02*
X73101000Y-106260000D01*
X73101000Y-110740000D02*
X73101000Y-127467000D01*
X73141000Y-89547000D02*
X73141000Y-106260000D01*
X73141000Y-110740000D02*
X73141000Y-127453000D01*
X73181000Y-89561000D02*
X73181000Y-106260000D01*
X73181000Y-110740000D02*
X73181000Y-127439000D01*
X73221000Y-89575000D02*
X73221000Y-106260000D01*
X73221000Y-110740000D02*
X73221000Y-127425000D01*
X73261000Y-89589000D02*
X73261000Y-106260000D01*
X73261000Y-110740000D02*
X73261000Y-127411000D01*
X73301000Y-89603000D02*
X73301000Y-106260000D01*
X73301000Y-110740000D02*
X73301000Y-127397000D01*
X73341000Y-89618000D02*
X73341000Y-106260000D01*
X73341000Y-110740000D02*
X73341000Y-127382000D01*
X73381000Y-89632000D02*
X73381000Y-106260000D01*
X73381000Y-110740000D02*
X73381000Y-127368000D01*
X73421000Y-89647000D02*
X73421000Y-106260000D01*
X73421000Y-110740000D02*
X73421000Y-127353000D01*
X73461000Y-89662000D02*
X73461000Y-106260000D01*
X73461000Y-110740000D02*
X73461000Y-127338000D01*
X73501000Y-89676000D02*
X73501000Y-106260000D01*
X73501000Y-110740000D02*
X73501000Y-127324000D01*
X73541000Y-89691000D02*
X73541000Y-106260000D01*
X73541000Y-110740000D02*
X73541000Y-127309000D01*
X73581000Y-89706000D02*
X73581000Y-106260000D01*
X73581000Y-110740000D02*
X73581000Y-127294000D01*
X73621000Y-89721000D02*
X73621000Y-106260000D01*
X73621000Y-110740000D02*
X73621000Y-127279000D01*
X73661000Y-89737000D02*
X73661000Y-106260000D01*
X73661000Y-110740000D02*
X73661000Y-127263000D01*
X73701000Y-89752000D02*
X73701000Y-106260000D01*
X73701000Y-110740000D02*
X73701000Y-127248000D01*
X73741000Y-89767000D02*
X73741000Y-127233000D01*
X73781000Y-89783000D02*
X73781000Y-127217000D01*
X73821000Y-89798000D02*
X73821000Y-127202000D01*
X73861000Y-89814000D02*
X73861000Y-127186000D01*
X73901000Y-89830000D02*
X73901000Y-127170000D01*
X73941000Y-89846000D02*
X73941000Y-127154000D01*
X73981000Y-89862000D02*
X73981000Y-127138000D01*
X74021000Y-89878000D02*
X74021000Y-127122000D01*
X74061000Y-89894000D02*
X74061000Y-127106000D01*
X74101000Y-89910000D02*
X74101000Y-127090000D01*
X74141000Y-89926000D02*
X74141000Y-127074000D01*
X74181000Y-89943000D02*
X74181000Y-127057000D01*
X74221000Y-89960000D02*
X74221000Y-127040000D01*
X74261000Y-89976000D02*
X74261000Y-127024000D01*
X74301000Y-89993000D02*
X74301000Y-127007000D01*
X74341000Y-90010000D02*
X74341000Y-126990000D01*
X74381000Y-90027000D02*
X74381000Y-126973000D01*
X74421000Y-90044000D02*
X74421000Y-126956000D01*
X74461000Y-90061000D02*
X74461000Y-126939000D01*
X74501000Y-90078000D02*
X74501000Y-126922000D01*
X74541000Y-90096000D02*
X74541000Y-126904000D01*
X74581000Y-90113000D02*
X74581000Y-126887000D01*
X74621000Y-90131000D02*
X74621000Y-126869000D01*
X74661000Y-90149000D02*
X74661000Y-126851000D01*
X74700000Y-90166000D02*
X74700000Y-126834000D01*
X74740000Y-90184000D02*
X74740000Y-126816000D01*
X74780000Y-90202000D02*
X74780000Y-126798000D01*
X74820000Y-90220000D02*
X74820000Y-126780000D01*
X74860000Y-90239000D02*
X74860000Y-126761000D01*
X74900000Y-90257000D02*
X74900000Y-126743000D01*
X74940000Y-90275000D02*
X74940000Y-126725000D01*
X74980000Y-90294000D02*
X74980000Y-126706000D01*
X75020000Y-90312000D02*
X75020000Y-126688000D01*
X75060000Y-90331000D02*
X75060000Y-126669000D01*
X75100000Y-90350000D02*
X75100000Y-126650000D01*
X75140000Y-90369000D02*
X75140000Y-126631000D01*
X75180000Y-90388000D02*
X75180000Y-126612000D01*
X75220000Y-90407000D02*
X75220000Y-126593000D01*
X75260000Y-90427000D02*
X75260000Y-126573000D01*
X75300000Y-90446000D02*
X75300000Y-126554000D01*
X75340000Y-90466000D02*
X75340000Y-126534000D01*
X75380000Y-90485000D02*
X75380000Y-126515000D01*
X75420000Y-90505000D02*
X75420000Y-126495000D01*
X75460000Y-90525000D02*
X75460000Y-126475000D01*
X75500000Y-90545000D02*
X75500000Y-126455000D01*
X75540000Y-90565000D02*
X75540000Y-126435000D01*
X75580000Y-90585000D02*
X75580000Y-126415000D01*
X75620000Y-90605000D02*
X75620000Y-126395000D01*
X75660000Y-90626000D02*
X75660000Y-126374000D01*
X75700000Y-90646000D02*
X75700000Y-126354000D01*
X75740000Y-90667000D02*
X75740000Y-126333000D01*
X75780000Y-90687000D02*
X75780000Y-126313000D01*
X75820000Y-90708000D02*
X75820000Y-126292000D01*
X75860000Y-90729000D02*
X75860000Y-126271000D01*
X75900000Y-90750000D02*
X75900000Y-126250000D01*
X75940000Y-90772000D02*
X75940000Y-126228000D01*
X75980000Y-90793000D02*
X75980000Y-126207000D01*
X76020000Y-90814000D02*
X76020000Y-126186000D01*
X76060000Y-90836000D02*
X76060000Y-126164000D01*
X76100000Y-90857000D02*
X76100000Y-126143000D01*
X76140000Y-90879000D02*
X76140000Y-126121000D01*
X76180000Y-90901000D02*
X76180000Y-126099000D01*
X76220000Y-90923000D02*
X76220000Y-126077000D01*
X76260000Y-90945000D02*
X76260000Y-126055000D01*
X76300000Y-90968000D02*
X76300000Y-126032000D01*
X76340000Y-90990000D02*
X76340000Y-126010000D01*
X76380000Y-91012000D02*
X76380000Y-125988000D01*
X76420000Y-91035000D02*
X76420000Y-125965000D01*
X76460000Y-91058000D02*
X76460000Y-125942000D01*
X76500000Y-91081000D02*
X76500000Y-125919000D01*
X76540000Y-91104000D02*
X76540000Y-125896000D01*
X76580000Y-91127000D02*
X76580000Y-125873000D01*
X76620000Y-91150000D02*
X76620000Y-125850000D01*
X76660000Y-91173000D02*
X76660000Y-125827000D01*
X76700000Y-91197000D02*
X76700000Y-125803000D01*
X76740000Y-91220000D02*
X76740000Y-125780000D01*
X76780000Y-91244000D02*
X76780000Y-125756000D01*
X76820000Y-91268000D02*
X76820000Y-125732000D01*
X76860000Y-91292000D02*
X76860000Y-125708000D01*
X76900000Y-91316000D02*
X76900000Y-125684000D01*
X76940000Y-91340000D02*
X76940000Y-125660000D01*
X76980000Y-91364000D02*
X76980000Y-125636000D01*
X77020000Y-91389000D02*
X77020000Y-125611000D01*
X77060000Y-91413000D02*
X77060000Y-125587000D01*
X77100000Y-91438000D02*
X77100000Y-125562000D01*
X77140000Y-91463000D02*
X77140000Y-125537000D01*
X77180000Y-91488000D02*
X77180000Y-125512000D01*
X77220000Y-91513000D02*
X77220000Y-125487000D01*
X77260000Y-91538000D02*
X77260000Y-125462000D01*
X77300000Y-91564000D02*
X77300000Y-125436000D01*
X77340000Y-91589000D02*
X77340000Y-125411000D01*
X77380000Y-91615000D02*
X77380000Y-125385000D01*
X77420000Y-91641000D02*
X77420000Y-125359000D01*
X77460000Y-91667000D02*
X77460000Y-125333000D01*
X77500000Y-91693000D02*
X77500000Y-125307000D01*
X77540000Y-91719000D02*
X77540000Y-125281000D01*
X77580000Y-91745000D02*
X77580000Y-125255000D01*
X77620000Y-91772000D02*
X77620000Y-125228000D01*
X77660000Y-91798000D02*
X77660000Y-125202000D01*
X77700000Y-91825000D02*
X77700000Y-125175000D01*
X77740000Y-91852000D02*
X77740000Y-125148000D01*
X77780000Y-91879000D02*
X77780000Y-125121000D01*
X77820000Y-91906000D02*
X77820000Y-125094000D01*
X77860000Y-91933000D02*
X77860000Y-125067000D01*
X77900000Y-91961000D02*
X77900000Y-125039000D01*
X77940000Y-91988000D02*
X77940000Y-125012000D01*
X77980000Y-92016000D02*
X77980000Y-124984000D01*
X78020000Y-92044000D02*
X78020000Y-124956000D01*
X78060000Y-92072000D02*
X78060000Y-124928000D01*
X78100000Y-92100000D02*
X78100000Y-124900000D01*
X78140000Y-92128000D02*
X78140000Y-124872000D01*
X78180000Y-92157000D02*
X78180000Y-124843000D01*
X78220000Y-92185000D02*
X78220000Y-124815000D01*
X78260000Y-92214000D02*
X78260000Y-124786000D01*
X78300000Y-92243000D02*
X78300000Y-124757000D01*
X78340000Y-92272000D02*
X78340000Y-124728000D01*
X78380000Y-92301000D02*
X78380000Y-124699000D01*
X78420000Y-92331000D02*
X78420000Y-124669000D01*
X78460000Y-92360000D02*
X78460000Y-124640000D01*
X78500000Y-92390000D02*
X78500000Y-124610000D01*
X78540000Y-92420000D02*
X78540000Y-124580000D01*
X78580000Y-92450000D02*
X78580000Y-124550000D01*
X78620000Y-92480000D02*
X78620000Y-124520000D01*
X78660000Y-92510000D02*
X78660000Y-124490000D01*
X78700000Y-92540000D02*
X78700000Y-124460000D01*
X78740000Y-92571000D02*
X78740000Y-124429000D01*
X78780000Y-92602000D02*
X78780000Y-124398000D01*
X78820000Y-92633000D02*
X78820000Y-124367000D01*
X78860000Y-92664000D02*
X78860000Y-124336000D01*
X78900000Y-92695000D02*
X78900000Y-124305000D01*
X78940000Y-92726000D02*
X78940000Y-124274000D01*
X78980000Y-92758000D02*
X78980000Y-124242000D01*
X79020000Y-92789000D02*
X79020000Y-124211000D01*
X79060000Y-92821000D02*
X79060000Y-124179000D01*
X79100000Y-92853000D02*
X79100000Y-124147000D01*
X79140000Y-92886000D02*
X79140000Y-124114000D01*
X79180000Y-92918000D02*
X79180000Y-124082000D01*
X79220000Y-92951000D02*
X79220000Y-124049000D01*
X79260000Y-92983000D02*
X79260000Y-124017000D01*
X79300000Y-93016000D02*
X79300000Y-123984000D01*
X79340000Y-93049000D02*
X79340000Y-123951000D01*
X79380000Y-93082000D02*
X79380000Y-123918000D01*
X79420000Y-93116000D02*
X79420000Y-123884000D01*
X79460000Y-93149000D02*
X79460000Y-123851000D01*
X79500000Y-93183000D02*
X79500000Y-123817000D01*
X79540000Y-93217000D02*
X79540000Y-123783000D01*
X79580000Y-93251000D02*
X79580000Y-123749000D01*
X79620000Y-93286000D02*
X79620000Y-123714000D01*
X79660000Y-93320000D02*
X79660000Y-123680000D01*
X79700000Y-93355000D02*
X79700000Y-123645000D01*
X79740000Y-93390000D02*
X79740000Y-123610000D01*
X79780000Y-93425000D02*
X79780000Y-123575000D01*
X79820000Y-93460000D02*
X79820000Y-123540000D01*
X79860000Y-93495000D02*
X79860000Y-123505000D01*
X79900000Y-93531000D02*
X79900000Y-123469000D01*
X79940000Y-93567000D02*
X79940000Y-123433000D01*
X79980000Y-93603000D02*
X79980000Y-123397000D01*
X80020000Y-93639000D02*
X80020000Y-123361000D01*
X80060000Y-93675000D02*
X80060000Y-123325000D01*
X80100000Y-93712000D02*
X80100000Y-123288000D01*
X80140000Y-93749000D02*
X80140000Y-123251000D01*
X80180000Y-93786000D02*
X80180000Y-123214000D01*
X80220000Y-93823000D02*
X80220000Y-123177000D01*
X80260000Y-93860000D02*
X80260000Y-123140000D01*
X80300000Y-93898000D02*
X80300000Y-123102000D01*
X80340000Y-93936000D02*
X80340000Y-123064000D01*
X80380000Y-93974000D02*
X80380000Y-123026000D01*
X80420000Y-94012000D02*
X80420000Y-122988000D01*
X80460000Y-94050000D02*
X80460000Y-122950000D01*
X80500000Y-94089000D02*
X80500000Y-122911000D01*
X80540000Y-94128000D02*
X80540000Y-122872000D01*
X80580000Y-94167000D02*
X80580000Y-122833000D01*
X80620000Y-94206000D02*
X80620000Y-122794000D01*
X80660000Y-94246000D02*
X80660000Y-122754000D01*
X80700000Y-94286000D02*
X80700000Y-122714000D01*
X80740000Y-94326000D02*
X80740000Y-122674000D01*
X80780000Y-94366000D02*
X80780000Y-122634000D01*
X80820000Y-94406000D02*
X80820000Y-122594000D01*
X80860000Y-94447000D02*
X80860000Y-122553000D01*
X80900000Y-94488000D02*
X80900000Y-122512000D01*
X80940000Y-94529000D02*
X80940000Y-122471000D01*
X80980000Y-94570000D02*
X80980000Y-122430000D01*
X81020000Y-94612000D02*
X81020000Y-122388000D01*
X81060000Y-94654000D02*
X81060000Y-122346000D01*
X81100000Y-94696000D02*
X81100000Y-122304000D01*
X81140000Y-94738000D02*
X81140000Y-122262000D01*
X81180000Y-94780000D02*
X81180000Y-122220000D01*
X81220000Y-94823000D02*
X81220000Y-122177000D01*
X81260000Y-94866000D02*
X81260000Y-122134000D01*
X81300000Y-94910000D02*
X81300000Y-122090000D01*
X81340000Y-94953000D02*
X81340000Y-122047000D01*
X81380000Y-94997000D02*
X81380000Y-122003000D01*
X81420000Y-95041000D02*
X81420000Y-121959000D01*
X81460000Y-95085000D02*
X81460000Y-121915000D01*
X81500000Y-95130000D02*
X81500000Y-121870000D01*
X81540000Y-95175000D02*
X81540000Y-121825000D01*
X81580000Y-95220000D02*
X81580000Y-121780000D01*
X81620000Y-95265000D02*
X81620000Y-121735000D01*
X81660000Y-95311000D02*
X81660000Y-121689000D01*
X81700000Y-95357000D02*
X81700000Y-121643000D01*
X81740000Y-95403000D02*
X81740000Y-121597000D01*
X81780000Y-95450000D02*
X81780000Y-121550000D01*
X81820000Y-95497000D02*
X81820000Y-121503000D01*
X81860000Y-95544000D02*
X81860000Y-121456000D01*
X81900000Y-95591000D02*
X81900000Y-121409000D01*
X81940000Y-95639000D02*
X81940000Y-121361000D01*
X81980000Y-95687000D02*
X81980000Y-121313000D01*
X82020000Y-95735000D02*
X82020000Y-121265000D01*
X82060000Y-95784000D02*
X82060000Y-121216000D01*
X82100000Y-95833000D02*
X82100000Y-121167000D01*
X82140000Y-95882000D02*
X82140000Y-121118000D01*
X82180000Y-95932000D02*
X82180000Y-121068000D01*
X82220000Y-95982000D02*
X82220000Y-121018000D01*
X82260000Y-96032000D02*
X82260000Y-120968000D01*
X82300000Y-96083000D02*
X82300000Y-120917000D01*
X82340000Y-96134000D02*
X82340000Y-120866000D01*
X82380000Y-96185000D02*
X82380000Y-120815000D01*
X82420000Y-96236000D02*
X82420000Y-120764000D01*
X82460000Y-96288000D02*
X82460000Y-120712000D01*
X82500000Y-96341000D02*
X82500000Y-120659000D01*
X82540000Y-96393000D02*
X82540000Y-120607000D01*
X82580000Y-96446000D02*
X82580000Y-120554000D01*
X82620000Y-96500000D02*
X82620000Y-120500000D01*
X82660000Y-96553000D02*
X82660000Y-120447000D01*
X82700000Y-96607000D02*
X82700000Y-120393000D01*
X82740000Y-96662000D02*
X82740000Y-120338000D01*
X82780000Y-96717000D02*
X82780000Y-120283000D01*
X82820000Y-96772000D02*
X82820000Y-120228000D01*
X82860000Y-96828000D02*
X82860000Y-120172000D01*
X82900000Y-96884000D02*
X82900000Y-120116000D01*
X82940000Y-96940000D02*
X82940000Y-120060000D01*
X82980000Y-96997000D02*
X82980000Y-120003000D01*
X83020000Y-97055000D02*
X83020000Y-119945000D01*
X83060000Y-97112000D02*
X83060000Y-119888000D01*
X83100000Y-97170000D02*
X83100000Y-119830000D01*
X83140000Y-97229000D02*
X83140000Y-119771000D01*
X83180000Y-97288000D02*
X83180000Y-119712000D01*
X83220000Y-97348000D02*
X83220000Y-119652000D01*
X83260000Y-97408000D02*
X83260000Y-119592000D01*
X83300000Y-97468000D02*
X83300000Y-119532000D01*
X83340000Y-97529000D02*
X83340000Y-119471000D01*
X83380000Y-97591000D02*
X83380000Y-119409000D01*
X83420000Y-97652000D02*
X83420000Y-119348000D01*
X83460000Y-97715000D02*
X83460000Y-119285000D01*
X83500000Y-97778000D02*
X83500000Y-119222000D01*
X83540000Y-97841000D02*
X83540000Y-119159000D01*
X83580000Y-97905000D02*
X83580000Y-119095000D01*
X83620000Y-97970000D02*
X83620000Y-119030000D01*
X83660000Y-98035000D02*
X83660000Y-118965000D01*
X83700000Y-98100000D02*
X83700000Y-118900000D01*
X83740000Y-98167000D02*
X83740000Y-118833000D01*
X83780000Y-98233000D02*
X83780000Y-118767000D01*
X83820000Y-98301000D02*
X83820000Y-118699000D01*
X83860000Y-98369000D02*
X83860000Y-118631000D01*
X83900000Y-98437000D02*
X83900000Y-118563000D01*
X83940000Y-98507000D02*
X83940000Y-118493000D01*
X83980000Y-98576000D02*
X83980000Y-118424000D01*
X84020000Y-98647000D02*
X84020000Y-118353000D01*
X84060000Y-98718000D02*
X84060000Y-118282000D01*
X84100000Y-98790000D02*
X84100000Y-118210000D01*
X84140000Y-98862000D02*
X84140000Y-118138000D01*
X84180000Y-98936000D02*
X84180000Y-118064000D01*
X84220000Y-99010000D02*
X84220000Y-117990000D01*
X84260000Y-99085000D02*
X84260000Y-117915000D01*
X84300000Y-99160000D02*
X84300000Y-117840000D01*
X84340000Y-99236000D02*
X84340000Y-117764000D01*
X84380000Y-99313000D02*
X84380000Y-117687000D01*
X84420000Y-99391000D02*
X84420000Y-117609000D01*
X84460000Y-99470000D02*
X84460000Y-117530000D01*
X84500000Y-99550000D02*
X84500000Y-117450000D01*
X84540000Y-99630000D02*
X84540000Y-117370000D01*
X84580000Y-99712000D02*
X84580000Y-117288000D01*
X84620000Y-99794000D02*
X84620000Y-117206000D01*
X84660000Y-99878000D02*
X84660000Y-117122000D01*
X84700000Y-99962000D02*
X84700000Y-117038000D01*
X84740000Y-100047000D02*
X84740000Y-116953000D01*
X84780000Y-100134000D02*
X84780000Y-116866000D01*
X84820000Y-100221000D02*
X84820000Y-116779000D01*
X84860000Y-100310000D02*
X84860000Y-116690000D01*
X84900000Y-100400000D02*
X84900000Y-116600000D01*
X84940000Y-100491000D02*
X84940000Y-116509000D01*
X84980000Y-100583000D02*
X84980000Y-116417000D01*
X85020000Y-100677000D02*
X85020000Y-116323000D01*
X85060000Y-100772000D02*
X85060000Y-116228000D01*
X85100000Y-100868000D02*
X85100000Y-116132000D01*
X85140000Y-100966000D02*
X85140000Y-116034000D01*
X85180000Y-101065000D02*
X85180000Y-115935000D01*
X85220000Y-101165000D02*
X85220000Y-115835000D01*
X85260000Y-101268000D02*
X85260000Y-115732000D01*
X85300000Y-101372000D02*
X85300000Y-115628000D01*
X85340000Y-101478000D02*
X85340000Y-115522000D01*
X85380000Y-101585000D02*
X85380000Y-115415000D01*
X85420000Y-101695000D02*
X85420000Y-115305000D01*
X85460000Y-101807000D02*
X85460000Y-115193000D01*
X85500000Y-101920000D02*
X85500000Y-115080000D01*
X85540000Y-102036000D02*
X85540000Y-114964000D01*
X85580000Y-102155000D02*
X85580000Y-114845000D01*
X85620000Y-102275000D02*
X85620000Y-114725000D01*
X85660000Y-102399000D02*
X85660000Y-114601000D01*
X85700000Y-102525000D02*
X85700000Y-114475000D01*
X85740000Y-102654000D02*
X85740000Y-114346000D01*
X85780000Y-102787000D02*
X85780000Y-114213000D01*
X85820000Y-102922000D02*
X85820000Y-114078000D01*
X85860000Y-103062000D02*
X85860000Y-113938000D01*
X85900000Y-103205000D02*
X85900000Y-113795000D01*
X85940000Y-103353000D02*
X85940000Y-113647000D01*
X85980000Y-103505000D02*
X85980000Y-113495000D01*
X86020000Y-103663000D02*
X86020000Y-113337000D01*
X86060000Y-103826000D02*
X86060000Y-113174000D01*
X86100000Y-103995000D02*
X86100000Y-113005000D01*
X86140000Y-104171000D02*
X86140000Y-112829000D01*
X86180000Y-104355000D02*
X86180000Y-112645000D01*
X86220000Y-104548000D02*
X86220000Y-112452000D01*
X86260000Y-104750000D02*
X86260000Y-112250000D01*
X86300000Y-104965000D02*
X86300000Y-112035000D01*
X86340000Y-105195000D02*
X86340000Y-111805000D01*
X86380000Y-105441000D02*
X86380000Y-111559000D01*
X86420000Y-105710000D02*
X86420000Y-111290000D01*
X86460000Y-106007000D02*
X86460000Y-110993000D01*
X86500000Y-106345000D02*
X86500000Y-110655000D01*
X86540000Y-106747000D02*
X86540000Y-110253000D01*
X86580000Y-107271000D02*
X86580000Y-109729000D01*
X86620000Y-108460000D02*
X86620000Y-108540000D01*
X86620000Y-108500000D02*
G75*
G02*
X46380000Y-108500000I-20120000J0D01*
G01*
X46380000Y-108500000D02*
G75*
G02*
X86620000Y-108500000I20120000J0D01*
G01*
%TO.C,D4*%
X117260000Y-142500000D02*
X118280000Y-142500000D01*
X118280000Y-141030000D02*
X118280000Y-143970000D01*
X118280000Y-143970000D02*
X123720000Y-143970000D01*
X119060000Y-141030000D02*
X119060000Y-143970000D01*
X119180000Y-141030000D02*
X119180000Y-143970000D01*
X119300000Y-141030000D02*
X119300000Y-143970000D01*
X123720000Y-141030000D02*
X118280000Y-141030000D01*
X123720000Y-143970000D02*
X123720000Y-141030000D01*
X124740000Y-142500000D02*
X123720000Y-142500000D01*
%TO.C,J1*%
X50471127Y-37725000D02*
X54471127Y-37725000D01*
X52471127Y-35725000D02*
X52471127Y-39725000D01*
X72000000Y-28920000D02*
X72000000Y-69080000D01*
X72040000Y-28920000D02*
X72040000Y-69080000D01*
X72080000Y-28920000D02*
X72080000Y-69080000D01*
X72120000Y-28920000D02*
X72120000Y-69080000D01*
X72160000Y-28920000D02*
X72160000Y-69080000D01*
X72200000Y-28920000D02*
X72200000Y-69080000D01*
X72240000Y-28921000D02*
X72240000Y-69079000D01*
X72280000Y-28921000D02*
X72280000Y-69079000D01*
X72320000Y-28922000D02*
X72320000Y-69078000D01*
X72360000Y-28923000D02*
X72360000Y-69077000D01*
X72400000Y-28923000D02*
X72400000Y-69077000D01*
X72440000Y-28924000D02*
X72440000Y-69076000D01*
X72480000Y-28925000D02*
X72480000Y-69075000D01*
X72520000Y-28926000D02*
X72520000Y-69074000D01*
X72560000Y-28927000D02*
X72560000Y-69073000D01*
X72600000Y-28928000D02*
X72600000Y-69072000D01*
X72640000Y-28930000D02*
X72640000Y-69070000D01*
X72680000Y-28931000D02*
X72680000Y-69069000D01*
X72721000Y-28932000D02*
X72721000Y-69068000D01*
X72761000Y-28934000D02*
X72761000Y-69066000D01*
X72801000Y-28935000D02*
X72801000Y-69065000D01*
X72841000Y-28937000D02*
X72841000Y-69063000D01*
X72881000Y-28939000D02*
X72881000Y-69061000D01*
X72921000Y-28941000D02*
X72921000Y-69059000D01*
X72961000Y-28942000D02*
X72961000Y-69058000D01*
X73001000Y-28944000D02*
X73001000Y-69056000D01*
X73041000Y-28946000D02*
X73041000Y-69054000D01*
X73081000Y-28949000D02*
X73081000Y-69051000D01*
X73121000Y-28951000D02*
X73121000Y-69049000D01*
X73161000Y-28953000D02*
X73161000Y-69047000D01*
X73201000Y-28955000D02*
X73201000Y-69045000D01*
X73241000Y-28958000D02*
X73241000Y-69042000D01*
X73281000Y-28960000D02*
X73281000Y-69040000D01*
X73321000Y-28963000D02*
X73321000Y-69037000D01*
X73361000Y-28966000D02*
X73361000Y-69034000D01*
X73401000Y-28968000D02*
X73401000Y-69032000D01*
X73441000Y-28971000D02*
X73441000Y-69029000D01*
X73481000Y-28974000D02*
X73481000Y-69026000D01*
X73521000Y-28977000D02*
X73521000Y-69023000D01*
X73561000Y-28980000D02*
X73561000Y-69020000D01*
X73601000Y-28983000D02*
X73601000Y-69017000D01*
X73641000Y-28986000D02*
X73641000Y-69014000D01*
X73681000Y-28990000D02*
X73681000Y-69010000D01*
X73721000Y-28993000D02*
X73721000Y-69007000D01*
X73761000Y-28997000D02*
X73761000Y-69003000D01*
X73801000Y-29000000D02*
X73801000Y-69000000D01*
X73841000Y-29004000D02*
X73841000Y-68996000D01*
X73881000Y-29008000D02*
X73881000Y-68992000D01*
X73921000Y-29011000D02*
X73921000Y-68989000D01*
X73961000Y-29015000D02*
X73961000Y-68985000D01*
X74001000Y-29019000D02*
X74001000Y-68981000D01*
X74041000Y-29023000D02*
X74041000Y-68977000D01*
X74081000Y-29027000D02*
X74081000Y-68973000D01*
X74121000Y-29032000D02*
X74121000Y-68968000D01*
X74161000Y-29036000D02*
X74161000Y-68964000D01*
X74201000Y-29040000D02*
X74201000Y-68960000D01*
X74241000Y-29045000D02*
X74241000Y-68955000D01*
X74281000Y-29049000D02*
X74281000Y-68951000D01*
X74321000Y-29054000D02*
X74321000Y-68946000D01*
X74361000Y-29058000D02*
X74361000Y-68942000D01*
X74401000Y-29063000D02*
X74401000Y-68937000D01*
X74441000Y-29068000D02*
X74441000Y-68932000D01*
X74481000Y-29073000D02*
X74481000Y-68927000D01*
X74521000Y-29078000D02*
X74521000Y-68922000D01*
X74561000Y-29083000D02*
X74561000Y-68917000D01*
X74601000Y-29088000D02*
X74601000Y-68912000D01*
X74641000Y-29093000D02*
X74641000Y-68907000D01*
X74681000Y-29099000D02*
X74681000Y-68901000D01*
X74721000Y-29104000D02*
X74721000Y-68896000D01*
X74761000Y-29110000D02*
X74761000Y-46760000D01*
X74761000Y-51240000D02*
X74761000Y-68890000D01*
X74801000Y-29115000D02*
X74801000Y-46760000D01*
X74801000Y-51240000D02*
X74801000Y-68885000D01*
X74841000Y-29121000D02*
X74841000Y-46760000D01*
X74841000Y-51240000D02*
X74841000Y-68879000D01*
X74881000Y-29127000D02*
X74881000Y-46760000D01*
X74881000Y-51240000D02*
X74881000Y-68873000D01*
X74921000Y-29133000D02*
X74921000Y-46760000D01*
X74921000Y-51240000D02*
X74921000Y-68867000D01*
X74961000Y-29138000D02*
X74961000Y-46760000D01*
X74961000Y-51240000D02*
X74961000Y-68862000D01*
X75001000Y-29144000D02*
X75001000Y-46760000D01*
X75001000Y-51240000D02*
X75001000Y-68856000D01*
X75041000Y-29150000D02*
X75041000Y-46760000D01*
X75041000Y-51240000D02*
X75041000Y-68850000D01*
X75081000Y-29157000D02*
X75081000Y-46760000D01*
X75081000Y-51240000D02*
X75081000Y-68843000D01*
X75121000Y-29163000D02*
X75121000Y-46760000D01*
X75121000Y-51240000D02*
X75121000Y-68837000D01*
X75161000Y-29169000D02*
X75161000Y-46760000D01*
X75161000Y-51240000D02*
X75161000Y-68831000D01*
X75201000Y-29176000D02*
X75201000Y-46760000D01*
X75201000Y-51240000D02*
X75201000Y-68824000D01*
X75241000Y-29182000D02*
X75241000Y-46760000D01*
X75241000Y-51240000D02*
X75241000Y-68818000D01*
X75281000Y-29189000D02*
X75281000Y-46760000D01*
X75281000Y-51240000D02*
X75281000Y-68811000D01*
X75321000Y-29195000D02*
X75321000Y-46760000D01*
X75321000Y-51240000D02*
X75321000Y-68805000D01*
X75361000Y-29202000D02*
X75361000Y-46760000D01*
X75361000Y-51240000D02*
X75361000Y-68798000D01*
X75401000Y-29209000D02*
X75401000Y-46760000D01*
X75401000Y-51240000D02*
X75401000Y-68791000D01*
X75441000Y-29216000D02*
X75441000Y-46760000D01*
X75441000Y-51240000D02*
X75441000Y-68784000D01*
X75481000Y-29223000D02*
X75481000Y-46760000D01*
X75481000Y-51240000D02*
X75481000Y-68777000D01*
X75521000Y-29230000D02*
X75521000Y-46760000D01*
X75521000Y-51240000D02*
X75521000Y-68770000D01*
X75561000Y-29237000D02*
X75561000Y-46760000D01*
X75561000Y-51240000D02*
X75561000Y-68763000D01*
X75601000Y-29244000D02*
X75601000Y-46760000D01*
X75601000Y-51240000D02*
X75601000Y-68756000D01*
X75641000Y-29252000D02*
X75641000Y-46760000D01*
X75641000Y-51240000D02*
X75641000Y-68748000D01*
X75681000Y-29259000D02*
X75681000Y-46760000D01*
X75681000Y-51240000D02*
X75681000Y-68741000D01*
X75721000Y-29266000D02*
X75721000Y-46760000D01*
X75721000Y-51240000D02*
X75721000Y-68734000D01*
X75761000Y-29274000D02*
X75761000Y-46760000D01*
X75761000Y-51240000D02*
X75761000Y-68726000D01*
X75801000Y-29282000D02*
X75801000Y-46760000D01*
X75801000Y-51240000D02*
X75801000Y-68718000D01*
X75841000Y-29289000D02*
X75841000Y-46760000D01*
X75841000Y-51240000D02*
X75841000Y-68711000D01*
X75881000Y-29297000D02*
X75881000Y-46760000D01*
X75881000Y-51240000D02*
X75881000Y-68703000D01*
X75921000Y-29305000D02*
X75921000Y-46760000D01*
X75921000Y-51240000D02*
X75921000Y-68695000D01*
X75961000Y-29313000D02*
X75961000Y-46760000D01*
X75961000Y-51240000D02*
X75961000Y-68687000D01*
X76001000Y-29321000D02*
X76001000Y-46760000D01*
X76001000Y-51240000D02*
X76001000Y-68679000D01*
X76041000Y-29329000D02*
X76041000Y-46760000D01*
X76041000Y-51240000D02*
X76041000Y-68671000D01*
X76081000Y-29338000D02*
X76081000Y-46760000D01*
X76081000Y-51240000D02*
X76081000Y-68662000D01*
X76121000Y-29346000D02*
X76121000Y-46760000D01*
X76121000Y-51240000D02*
X76121000Y-68654000D01*
X76161000Y-29354000D02*
X76161000Y-46760000D01*
X76161000Y-51240000D02*
X76161000Y-68646000D01*
X76201000Y-29363000D02*
X76201000Y-46760000D01*
X76201000Y-51240000D02*
X76201000Y-68637000D01*
X76241000Y-29371000D02*
X76241000Y-46760000D01*
X76241000Y-51240000D02*
X76241000Y-68629000D01*
X76281000Y-29380000D02*
X76281000Y-46760000D01*
X76281000Y-51240000D02*
X76281000Y-68620000D01*
X76321000Y-29389000D02*
X76321000Y-46760000D01*
X76321000Y-51240000D02*
X76321000Y-68611000D01*
X76361000Y-29398000D02*
X76361000Y-46760000D01*
X76361000Y-51240000D02*
X76361000Y-68602000D01*
X76401000Y-29407000D02*
X76401000Y-46760000D01*
X76401000Y-51240000D02*
X76401000Y-68593000D01*
X76441000Y-29416000D02*
X76441000Y-46760000D01*
X76441000Y-51240000D02*
X76441000Y-68584000D01*
X76481000Y-29425000D02*
X76481000Y-46760000D01*
X76481000Y-51240000D02*
X76481000Y-68575000D01*
X76521000Y-29434000D02*
X76521000Y-46760000D01*
X76521000Y-51240000D02*
X76521000Y-68566000D01*
X76561000Y-29443000D02*
X76561000Y-46760000D01*
X76561000Y-51240000D02*
X76561000Y-68557000D01*
X76601000Y-29452000D02*
X76601000Y-46760000D01*
X76601000Y-51240000D02*
X76601000Y-68548000D01*
X76641000Y-29462000D02*
X76641000Y-46760000D01*
X76641000Y-51240000D02*
X76641000Y-68538000D01*
X76681000Y-29471000D02*
X76681000Y-46760000D01*
X76681000Y-51240000D02*
X76681000Y-68529000D01*
X76721000Y-29481000D02*
X76721000Y-46760000D01*
X76721000Y-51240000D02*
X76721000Y-68519000D01*
X76761000Y-29491000D02*
X76761000Y-46760000D01*
X76761000Y-51240000D02*
X76761000Y-68509000D01*
X76801000Y-29500000D02*
X76801000Y-46760000D01*
X76801000Y-51240000D02*
X76801000Y-68500000D01*
X76841000Y-29510000D02*
X76841000Y-46760000D01*
X76841000Y-51240000D02*
X76841000Y-68490000D01*
X76881000Y-29520000D02*
X76881000Y-46760000D01*
X76881000Y-51240000D02*
X76881000Y-68480000D01*
X76921000Y-29530000D02*
X76921000Y-46760000D01*
X76921000Y-51240000D02*
X76921000Y-68470000D01*
X76961000Y-29540000D02*
X76961000Y-46760000D01*
X76961000Y-51240000D02*
X76961000Y-68460000D01*
X77001000Y-29551000D02*
X77001000Y-46760000D01*
X77001000Y-51240000D02*
X77001000Y-68449000D01*
X77041000Y-29561000D02*
X77041000Y-46760000D01*
X77041000Y-51240000D02*
X77041000Y-68439000D01*
X77081000Y-29571000D02*
X77081000Y-46760000D01*
X77081000Y-51240000D02*
X77081000Y-68429000D01*
X77121000Y-29582000D02*
X77121000Y-46760000D01*
X77121000Y-51240000D02*
X77121000Y-68418000D01*
X77161000Y-29592000D02*
X77161000Y-46760000D01*
X77161000Y-51240000D02*
X77161000Y-68408000D01*
X77201000Y-29603000D02*
X77201000Y-46760000D01*
X77201000Y-51240000D02*
X77201000Y-68397000D01*
X77241000Y-29614000D02*
X77241000Y-46760000D01*
X77241000Y-51240000D02*
X77241000Y-68386000D01*
X77281000Y-29625000D02*
X77281000Y-46760000D01*
X77281000Y-51240000D02*
X77281000Y-68375000D01*
X77321000Y-29636000D02*
X77321000Y-46760000D01*
X77321000Y-51240000D02*
X77321000Y-68364000D01*
X77361000Y-29647000D02*
X77361000Y-46760000D01*
X77361000Y-51240000D02*
X77361000Y-68353000D01*
X77401000Y-29658000D02*
X77401000Y-46760000D01*
X77401000Y-51240000D02*
X77401000Y-68342000D01*
X77441000Y-29669000D02*
X77441000Y-46760000D01*
X77441000Y-51240000D02*
X77441000Y-68331000D01*
X77481000Y-29680000D02*
X77481000Y-46760000D01*
X77481000Y-51240000D02*
X77481000Y-68320000D01*
X77521000Y-29692000D02*
X77521000Y-46760000D01*
X77521000Y-51240000D02*
X77521000Y-68308000D01*
X77561000Y-29703000D02*
X77561000Y-46760000D01*
X77561000Y-51240000D02*
X77561000Y-68297000D01*
X77601000Y-29715000D02*
X77601000Y-46760000D01*
X77601000Y-51240000D02*
X77601000Y-68285000D01*
X77641000Y-29726000D02*
X77641000Y-46760000D01*
X77641000Y-51240000D02*
X77641000Y-68274000D01*
X77681000Y-29738000D02*
X77681000Y-46760000D01*
X77681000Y-51240000D02*
X77681000Y-68262000D01*
X77721000Y-29750000D02*
X77721000Y-46760000D01*
X77721000Y-51240000D02*
X77721000Y-68250000D01*
X77761000Y-29762000D02*
X77761000Y-46760000D01*
X77761000Y-51240000D02*
X77761000Y-68238000D01*
X77801000Y-29774000D02*
X77801000Y-46760000D01*
X77801000Y-51240000D02*
X77801000Y-68226000D01*
X77841000Y-29786000D02*
X77841000Y-46760000D01*
X77841000Y-51240000D02*
X77841000Y-68214000D01*
X77881000Y-29798000D02*
X77881000Y-46760000D01*
X77881000Y-51240000D02*
X77881000Y-68202000D01*
X77921000Y-29810000D02*
X77921000Y-46760000D01*
X77921000Y-51240000D02*
X77921000Y-68190000D01*
X77961000Y-29823000D02*
X77961000Y-46760000D01*
X77961000Y-51240000D02*
X77961000Y-68177000D01*
X78001000Y-29835000D02*
X78001000Y-46760000D01*
X78001000Y-51240000D02*
X78001000Y-68165000D01*
X78041000Y-29848000D02*
X78041000Y-46760000D01*
X78041000Y-51240000D02*
X78041000Y-68152000D01*
X78081000Y-29860000D02*
X78081000Y-46760000D01*
X78081000Y-51240000D02*
X78081000Y-68140000D01*
X78121000Y-29873000D02*
X78121000Y-46760000D01*
X78121000Y-51240000D02*
X78121000Y-68127000D01*
X78161000Y-29886000D02*
X78161000Y-46760000D01*
X78161000Y-51240000D02*
X78161000Y-68114000D01*
X78201000Y-29899000D02*
X78201000Y-46760000D01*
X78201000Y-51240000D02*
X78201000Y-68101000D01*
X78241000Y-29912000D02*
X78241000Y-46760000D01*
X78241000Y-51240000D02*
X78241000Y-68088000D01*
X78281000Y-29925000D02*
X78281000Y-46760000D01*
X78281000Y-51240000D02*
X78281000Y-68075000D01*
X78321000Y-29938000D02*
X78321000Y-46760000D01*
X78321000Y-51240000D02*
X78321000Y-68062000D01*
X78361000Y-29951000D02*
X78361000Y-46760000D01*
X78361000Y-51240000D02*
X78361000Y-68049000D01*
X78401000Y-29965000D02*
X78401000Y-46760000D01*
X78401000Y-51240000D02*
X78401000Y-68035000D01*
X78441000Y-29978000D02*
X78441000Y-46760000D01*
X78441000Y-51240000D02*
X78441000Y-68022000D01*
X78481000Y-29992000D02*
X78481000Y-46760000D01*
X78481000Y-51240000D02*
X78481000Y-68008000D01*
X78521000Y-30005000D02*
X78521000Y-46760000D01*
X78521000Y-51240000D02*
X78521000Y-67995000D01*
X78561000Y-30019000D02*
X78561000Y-46760000D01*
X78561000Y-51240000D02*
X78561000Y-67981000D01*
X78601000Y-30033000D02*
X78601000Y-46760000D01*
X78601000Y-51240000D02*
X78601000Y-67967000D01*
X78641000Y-30047000D02*
X78641000Y-46760000D01*
X78641000Y-51240000D02*
X78641000Y-67953000D01*
X78681000Y-30061000D02*
X78681000Y-46760000D01*
X78681000Y-51240000D02*
X78681000Y-67939000D01*
X78721000Y-30075000D02*
X78721000Y-46760000D01*
X78721000Y-51240000D02*
X78721000Y-67925000D01*
X78761000Y-30089000D02*
X78761000Y-46760000D01*
X78761000Y-51240000D02*
X78761000Y-67911000D01*
X78801000Y-30103000D02*
X78801000Y-46760000D01*
X78801000Y-51240000D02*
X78801000Y-67897000D01*
X78841000Y-30118000D02*
X78841000Y-46760000D01*
X78841000Y-51240000D02*
X78841000Y-67882000D01*
X78881000Y-30132000D02*
X78881000Y-46760000D01*
X78881000Y-51240000D02*
X78881000Y-67868000D01*
X78921000Y-30147000D02*
X78921000Y-46760000D01*
X78921000Y-51240000D02*
X78921000Y-67853000D01*
X78961000Y-30162000D02*
X78961000Y-46760000D01*
X78961000Y-51240000D02*
X78961000Y-67838000D01*
X79001000Y-30176000D02*
X79001000Y-46760000D01*
X79001000Y-51240000D02*
X79001000Y-67824000D01*
X79041000Y-30191000D02*
X79041000Y-46760000D01*
X79041000Y-51240000D02*
X79041000Y-67809000D01*
X79081000Y-30206000D02*
X79081000Y-46760000D01*
X79081000Y-51240000D02*
X79081000Y-67794000D01*
X79121000Y-30221000D02*
X79121000Y-46760000D01*
X79121000Y-51240000D02*
X79121000Y-67779000D01*
X79161000Y-30237000D02*
X79161000Y-46760000D01*
X79161000Y-51240000D02*
X79161000Y-67763000D01*
X79201000Y-30252000D02*
X79201000Y-46760000D01*
X79201000Y-51240000D02*
X79201000Y-67748000D01*
X79241000Y-30267000D02*
X79241000Y-67733000D01*
X79281000Y-30283000D02*
X79281000Y-67717000D01*
X79321000Y-30298000D02*
X79321000Y-67702000D01*
X79361000Y-30314000D02*
X79361000Y-67686000D01*
X79401000Y-30330000D02*
X79401000Y-67670000D01*
X79441000Y-30346000D02*
X79441000Y-67654000D01*
X79481000Y-30362000D02*
X79481000Y-67638000D01*
X79521000Y-30378000D02*
X79521000Y-67622000D01*
X79561000Y-30394000D02*
X79561000Y-67606000D01*
X79601000Y-30410000D02*
X79601000Y-67590000D01*
X79641000Y-30426000D02*
X79641000Y-67574000D01*
X79681000Y-30443000D02*
X79681000Y-67557000D01*
X79721000Y-30460000D02*
X79721000Y-67540000D01*
X79761000Y-30476000D02*
X79761000Y-67524000D01*
X79801000Y-30493000D02*
X79801000Y-67507000D01*
X79841000Y-30510000D02*
X79841000Y-67490000D01*
X79881000Y-30527000D02*
X79881000Y-67473000D01*
X79921000Y-30544000D02*
X79921000Y-67456000D01*
X79961000Y-30561000D02*
X79961000Y-67439000D01*
X80001000Y-30578000D02*
X80001000Y-67422000D01*
X80041000Y-30596000D02*
X80041000Y-67404000D01*
X80081000Y-30613000D02*
X80081000Y-67387000D01*
X80121000Y-30631000D02*
X80121000Y-67369000D01*
X80161000Y-30649000D02*
X80161000Y-67351000D01*
X80200000Y-30666000D02*
X80200000Y-67334000D01*
X80240000Y-30684000D02*
X80240000Y-67316000D01*
X80280000Y-30702000D02*
X80280000Y-67298000D01*
X80320000Y-30720000D02*
X80320000Y-67280000D01*
X80360000Y-30739000D02*
X80360000Y-67261000D01*
X80400000Y-30757000D02*
X80400000Y-67243000D01*
X80440000Y-30775000D02*
X80440000Y-67225000D01*
X80480000Y-30794000D02*
X80480000Y-67206000D01*
X80520000Y-30812000D02*
X80520000Y-67188000D01*
X80560000Y-30831000D02*
X80560000Y-67169000D01*
X80600000Y-30850000D02*
X80600000Y-67150000D01*
X80640000Y-30869000D02*
X80640000Y-67131000D01*
X80680000Y-30888000D02*
X80680000Y-67112000D01*
X80720000Y-30907000D02*
X80720000Y-67093000D01*
X80760000Y-30927000D02*
X80760000Y-67073000D01*
X80800000Y-30946000D02*
X80800000Y-67054000D01*
X80840000Y-30966000D02*
X80840000Y-67034000D01*
X80880000Y-30985000D02*
X80880000Y-67015000D01*
X80920000Y-31005000D02*
X80920000Y-66995000D01*
X80960000Y-31025000D02*
X80960000Y-66975000D01*
X81000000Y-31045000D02*
X81000000Y-66955000D01*
X81040000Y-31065000D02*
X81040000Y-66935000D01*
X81080000Y-31085000D02*
X81080000Y-66915000D01*
X81120000Y-31105000D02*
X81120000Y-66895000D01*
X81160000Y-31126000D02*
X81160000Y-66874000D01*
X81200000Y-31146000D02*
X81200000Y-66854000D01*
X81240000Y-31167000D02*
X81240000Y-66833000D01*
X81280000Y-31187000D02*
X81280000Y-66813000D01*
X81320000Y-31208000D02*
X81320000Y-66792000D01*
X81360000Y-31229000D02*
X81360000Y-66771000D01*
X81400000Y-31250000D02*
X81400000Y-66750000D01*
X81440000Y-31272000D02*
X81440000Y-66728000D01*
X81480000Y-31293000D02*
X81480000Y-66707000D01*
X81520000Y-31314000D02*
X81520000Y-66686000D01*
X81560000Y-31336000D02*
X81560000Y-66664000D01*
X81600000Y-31357000D02*
X81600000Y-66643000D01*
X81640000Y-31379000D02*
X81640000Y-66621000D01*
X81680000Y-31401000D02*
X81680000Y-66599000D01*
X81720000Y-31423000D02*
X81720000Y-66577000D01*
X81760000Y-31445000D02*
X81760000Y-66555000D01*
X81800000Y-31468000D02*
X81800000Y-66532000D01*
X81840000Y-31490000D02*
X81840000Y-66510000D01*
X81880000Y-31512000D02*
X81880000Y-66488000D01*
X81920000Y-31535000D02*
X81920000Y-66465000D01*
X81960000Y-31558000D02*
X81960000Y-66442000D01*
X82000000Y-31581000D02*
X82000000Y-66419000D01*
X82040000Y-31604000D02*
X82040000Y-66396000D01*
X82080000Y-31627000D02*
X82080000Y-66373000D01*
X82120000Y-31650000D02*
X82120000Y-66350000D01*
X82160000Y-31673000D02*
X82160000Y-66327000D01*
X82200000Y-31697000D02*
X82200000Y-66303000D01*
X82240000Y-31720000D02*
X82240000Y-66280000D01*
X82280000Y-31744000D02*
X82280000Y-66256000D01*
X82320000Y-31768000D02*
X82320000Y-66232000D01*
X82360000Y-31792000D02*
X82360000Y-66208000D01*
X82400000Y-31816000D02*
X82400000Y-66184000D01*
X82440000Y-31840000D02*
X82440000Y-66160000D01*
X82480000Y-31864000D02*
X82480000Y-66136000D01*
X82520000Y-31889000D02*
X82520000Y-66111000D01*
X82560000Y-31913000D02*
X82560000Y-66087000D01*
X82600000Y-31938000D02*
X82600000Y-66062000D01*
X82640000Y-31963000D02*
X82640000Y-66037000D01*
X82680000Y-31988000D02*
X82680000Y-66012000D01*
X82720000Y-32013000D02*
X82720000Y-65987000D01*
X82760000Y-32038000D02*
X82760000Y-65962000D01*
X82800000Y-32064000D02*
X82800000Y-65936000D01*
X82840000Y-32089000D02*
X82840000Y-65911000D01*
X82880000Y-32115000D02*
X82880000Y-65885000D01*
X82920000Y-32141000D02*
X82920000Y-65859000D01*
X82960000Y-32167000D02*
X82960000Y-65833000D01*
X83000000Y-32193000D02*
X83000000Y-65807000D01*
X83040000Y-32219000D02*
X83040000Y-65781000D01*
X83080000Y-32245000D02*
X83080000Y-65755000D01*
X83120000Y-32272000D02*
X83120000Y-65728000D01*
X83160000Y-32298000D02*
X83160000Y-65702000D01*
X83200000Y-32325000D02*
X83200000Y-65675000D01*
X83240000Y-32352000D02*
X83240000Y-65648000D01*
X83280000Y-32379000D02*
X83280000Y-65621000D01*
X83320000Y-32406000D02*
X83320000Y-65594000D01*
X83360000Y-32433000D02*
X83360000Y-65567000D01*
X83400000Y-32461000D02*
X83400000Y-65539000D01*
X83440000Y-32488000D02*
X83440000Y-65512000D01*
X83480000Y-32516000D02*
X83480000Y-65484000D01*
X83520000Y-32544000D02*
X83520000Y-65456000D01*
X83560000Y-32572000D02*
X83560000Y-65428000D01*
X83600000Y-32600000D02*
X83600000Y-65400000D01*
X83640000Y-32628000D02*
X83640000Y-65372000D01*
X83680000Y-32657000D02*
X83680000Y-65343000D01*
X83720000Y-32685000D02*
X83720000Y-65315000D01*
X83760000Y-32714000D02*
X83760000Y-65286000D01*
X83800000Y-32743000D02*
X83800000Y-65257000D01*
X83840000Y-32772000D02*
X83840000Y-65228000D01*
X83880000Y-32801000D02*
X83880000Y-65199000D01*
X83920000Y-32831000D02*
X83920000Y-65169000D01*
X83960000Y-32860000D02*
X83960000Y-65140000D01*
X84000000Y-32890000D02*
X84000000Y-65110000D01*
X84040000Y-32920000D02*
X84040000Y-65080000D01*
X84080000Y-32950000D02*
X84080000Y-65050000D01*
X84120000Y-32980000D02*
X84120000Y-65020000D01*
X84160000Y-33010000D02*
X84160000Y-64990000D01*
X84200000Y-33040000D02*
X84200000Y-64960000D01*
X84240000Y-33071000D02*
X84240000Y-64929000D01*
X84280000Y-33102000D02*
X84280000Y-64898000D01*
X84320000Y-33133000D02*
X84320000Y-64867000D01*
X84360000Y-33164000D02*
X84360000Y-64836000D01*
X84400000Y-33195000D02*
X84400000Y-64805000D01*
X84440000Y-33226000D02*
X84440000Y-64774000D01*
X84480000Y-33258000D02*
X84480000Y-64742000D01*
X84520000Y-33289000D02*
X84520000Y-64711000D01*
X84560000Y-33321000D02*
X84560000Y-64679000D01*
X84600000Y-33353000D02*
X84600000Y-64647000D01*
X84640000Y-33386000D02*
X84640000Y-64614000D01*
X84680000Y-33418000D02*
X84680000Y-64582000D01*
X84720000Y-33451000D02*
X84720000Y-64549000D01*
X84760000Y-33483000D02*
X84760000Y-64517000D01*
X84800000Y-33516000D02*
X84800000Y-64484000D01*
X84840000Y-33549000D02*
X84840000Y-64451000D01*
X84880000Y-33582000D02*
X84880000Y-64418000D01*
X84920000Y-33616000D02*
X84920000Y-64384000D01*
X84960000Y-33649000D02*
X84960000Y-64351000D01*
X85000000Y-33683000D02*
X85000000Y-64317000D01*
X85040000Y-33717000D02*
X85040000Y-64283000D01*
X85080000Y-33751000D02*
X85080000Y-64249000D01*
X85120000Y-33786000D02*
X85120000Y-64214000D01*
X85160000Y-33820000D02*
X85160000Y-64180000D01*
X85200000Y-33855000D02*
X85200000Y-64145000D01*
X85240000Y-33890000D02*
X85240000Y-64110000D01*
X85280000Y-33925000D02*
X85280000Y-64075000D01*
X85320000Y-33960000D02*
X85320000Y-64040000D01*
X85360000Y-33995000D02*
X85360000Y-64005000D01*
X85400000Y-34031000D02*
X85400000Y-63969000D01*
X85440000Y-34067000D02*
X85440000Y-63933000D01*
X85480000Y-34103000D02*
X85480000Y-63897000D01*
X85520000Y-34139000D02*
X85520000Y-63861000D01*
X85560000Y-34175000D02*
X85560000Y-63825000D01*
X85600000Y-34212000D02*
X85600000Y-63788000D01*
X85640000Y-34249000D02*
X85640000Y-63751000D01*
X85680000Y-34286000D02*
X85680000Y-63714000D01*
X85720000Y-34323000D02*
X85720000Y-63677000D01*
X85760000Y-34360000D02*
X85760000Y-63640000D01*
X85800000Y-34398000D02*
X85800000Y-63602000D01*
X85840000Y-34436000D02*
X85840000Y-63564000D01*
X85880000Y-34474000D02*
X85880000Y-63526000D01*
X85920000Y-34512000D02*
X85920000Y-63488000D01*
X85960000Y-34550000D02*
X85960000Y-63450000D01*
X86000000Y-34589000D02*
X86000000Y-63411000D01*
X86040000Y-34628000D02*
X86040000Y-63372000D01*
X86080000Y-34667000D02*
X86080000Y-63333000D01*
X86120000Y-34706000D02*
X86120000Y-63294000D01*
X86160000Y-34746000D02*
X86160000Y-63254000D01*
X86200000Y-34786000D02*
X86200000Y-63214000D01*
X86240000Y-34826000D02*
X86240000Y-63174000D01*
X86280000Y-34866000D02*
X86280000Y-63134000D01*
X86320000Y-34906000D02*
X86320000Y-63094000D01*
X86360000Y-34947000D02*
X86360000Y-63053000D01*
X86400000Y-34988000D02*
X86400000Y-63012000D01*
X86440000Y-35029000D02*
X86440000Y-62971000D01*
X86480000Y-35070000D02*
X86480000Y-62930000D01*
X86520000Y-35112000D02*
X86520000Y-62888000D01*
X86560000Y-35154000D02*
X86560000Y-62846000D01*
X86600000Y-35196000D02*
X86600000Y-62804000D01*
X86640000Y-35238000D02*
X86640000Y-62762000D01*
X86680000Y-35280000D02*
X86680000Y-62720000D01*
X86720000Y-35323000D02*
X86720000Y-62677000D01*
X86760000Y-35366000D02*
X86760000Y-62634000D01*
X86800000Y-35410000D02*
X86800000Y-62590000D01*
X86840000Y-35453000D02*
X86840000Y-62547000D01*
X86880000Y-35497000D02*
X86880000Y-62503000D01*
X86920000Y-35541000D02*
X86920000Y-62459000D01*
X86960000Y-35585000D02*
X86960000Y-62415000D01*
X87000000Y-35630000D02*
X87000000Y-62370000D01*
X87040000Y-35675000D02*
X87040000Y-62325000D01*
X87080000Y-35720000D02*
X87080000Y-62280000D01*
X87120000Y-35765000D02*
X87120000Y-62235000D01*
X87160000Y-35811000D02*
X87160000Y-62189000D01*
X87200000Y-35857000D02*
X87200000Y-62143000D01*
X87240000Y-35903000D02*
X87240000Y-62097000D01*
X87280000Y-35950000D02*
X87280000Y-62050000D01*
X87320000Y-35997000D02*
X87320000Y-62003000D01*
X87360000Y-36044000D02*
X87360000Y-61956000D01*
X87400000Y-36091000D02*
X87400000Y-61909000D01*
X87440000Y-36139000D02*
X87440000Y-61861000D01*
X87480000Y-36187000D02*
X87480000Y-61813000D01*
X87520000Y-36235000D02*
X87520000Y-61765000D01*
X87560000Y-36284000D02*
X87560000Y-61716000D01*
X87600000Y-36333000D02*
X87600000Y-61667000D01*
X87640000Y-36382000D02*
X87640000Y-61618000D01*
X87680000Y-36432000D02*
X87680000Y-61568000D01*
X87720000Y-36482000D02*
X87720000Y-61518000D01*
X87760000Y-36532000D02*
X87760000Y-61468000D01*
X87800000Y-36583000D02*
X87800000Y-61417000D01*
X87840000Y-36634000D02*
X87840000Y-61366000D01*
X87880000Y-36685000D02*
X87880000Y-61315000D01*
X87920000Y-36736000D02*
X87920000Y-61264000D01*
X87960000Y-36788000D02*
X87960000Y-61212000D01*
X88000000Y-36841000D02*
X88000000Y-61159000D01*
X88040000Y-36893000D02*
X88040000Y-61107000D01*
X88080000Y-36946000D02*
X88080000Y-61054000D01*
X88120000Y-37000000D02*
X88120000Y-61000000D01*
X88160000Y-37053000D02*
X88160000Y-60947000D01*
X88200000Y-37107000D02*
X88200000Y-60893000D01*
X88240000Y-37162000D02*
X88240000Y-60838000D01*
X88280000Y-37217000D02*
X88280000Y-60783000D01*
X88320000Y-37272000D02*
X88320000Y-60728000D01*
X88360000Y-37328000D02*
X88360000Y-60672000D01*
X88400000Y-37384000D02*
X88400000Y-60616000D01*
X88440000Y-37440000D02*
X88440000Y-60560000D01*
X88480000Y-37497000D02*
X88480000Y-60503000D01*
X88520000Y-37555000D02*
X88520000Y-60445000D01*
X88560000Y-37612000D02*
X88560000Y-60388000D01*
X88600000Y-37670000D02*
X88600000Y-60330000D01*
X88640000Y-37729000D02*
X88640000Y-60271000D01*
X88680000Y-37788000D02*
X88680000Y-60212000D01*
X88720000Y-37848000D02*
X88720000Y-60152000D01*
X88760000Y-37908000D02*
X88760000Y-60092000D01*
X88800000Y-37968000D02*
X88800000Y-60032000D01*
X88840000Y-38029000D02*
X88840000Y-59971000D01*
X88880000Y-38091000D02*
X88880000Y-59909000D01*
X88920000Y-38152000D02*
X88920000Y-59848000D01*
X88960000Y-38215000D02*
X88960000Y-59785000D01*
X89000000Y-38278000D02*
X89000000Y-59722000D01*
X89040000Y-38341000D02*
X89040000Y-59659000D01*
X89080000Y-38405000D02*
X89080000Y-59595000D01*
X89120000Y-38470000D02*
X89120000Y-59530000D01*
X89160000Y-38535000D02*
X89160000Y-59465000D01*
X89200000Y-38600000D02*
X89200000Y-59400000D01*
X89240000Y-38667000D02*
X89240000Y-59333000D01*
X89280000Y-38733000D02*
X89280000Y-59267000D01*
X89320000Y-38801000D02*
X89320000Y-59199000D01*
X89360000Y-38869000D02*
X89360000Y-59131000D01*
X89400000Y-38937000D02*
X89400000Y-59063000D01*
X89440000Y-39007000D02*
X89440000Y-58993000D01*
X89480000Y-39076000D02*
X89480000Y-58924000D01*
X89520000Y-39147000D02*
X89520000Y-58853000D01*
X89560000Y-39218000D02*
X89560000Y-58782000D01*
X89600000Y-39290000D02*
X89600000Y-58710000D01*
X89640000Y-39362000D02*
X89640000Y-58638000D01*
X89680000Y-39436000D02*
X89680000Y-58564000D01*
X89720000Y-39510000D02*
X89720000Y-58490000D01*
X89760000Y-39585000D02*
X89760000Y-58415000D01*
X89800000Y-39660000D02*
X89800000Y-58340000D01*
X89840000Y-39736000D02*
X89840000Y-58264000D01*
X89880000Y-39813000D02*
X89880000Y-58187000D01*
X89920000Y-39891000D02*
X89920000Y-58109000D01*
X89960000Y-39970000D02*
X89960000Y-58030000D01*
X90000000Y-40050000D02*
X90000000Y-57950000D01*
X90040000Y-40130000D02*
X90040000Y-57870000D01*
X90080000Y-40212000D02*
X90080000Y-57788000D01*
X90120000Y-40294000D02*
X90120000Y-57706000D01*
X90160000Y-40378000D02*
X90160000Y-57622000D01*
X90200000Y-40462000D02*
X90200000Y-57538000D01*
X90240000Y-40547000D02*
X90240000Y-57453000D01*
X90280000Y-40634000D02*
X90280000Y-57366000D01*
X90320000Y-40721000D02*
X90320000Y-57279000D01*
X90360000Y-40810000D02*
X90360000Y-57190000D01*
X90400000Y-40900000D02*
X90400000Y-57100000D01*
X90440000Y-40991000D02*
X90440000Y-57009000D01*
X90480000Y-41083000D02*
X90480000Y-56917000D01*
X90520000Y-41177000D02*
X90520000Y-56823000D01*
X90560000Y-41272000D02*
X90560000Y-56728000D01*
X90600000Y-41368000D02*
X90600000Y-56632000D01*
X90640000Y-41466000D02*
X90640000Y-56534000D01*
X90680000Y-41565000D02*
X90680000Y-56435000D01*
X90720000Y-41665000D02*
X90720000Y-56335000D01*
X90760000Y-41768000D02*
X90760000Y-56232000D01*
X90800000Y-41872000D02*
X90800000Y-56128000D01*
X90840000Y-41978000D02*
X90840000Y-56022000D01*
X90880000Y-42085000D02*
X90880000Y-55915000D01*
X90920000Y-42195000D02*
X90920000Y-55805000D01*
X90960000Y-42307000D02*
X90960000Y-55693000D01*
X91000000Y-42420000D02*
X91000000Y-55580000D01*
X91040000Y-42536000D02*
X91040000Y-55464000D01*
X91080000Y-42655000D02*
X91080000Y-55345000D01*
X91120000Y-42775000D02*
X91120000Y-55225000D01*
X91160000Y-42899000D02*
X91160000Y-55101000D01*
X91200000Y-43025000D02*
X91200000Y-54975000D01*
X91240000Y-43154000D02*
X91240000Y-54846000D01*
X91280000Y-43287000D02*
X91280000Y-54713000D01*
X91320000Y-43422000D02*
X91320000Y-54578000D01*
X91360000Y-43562000D02*
X91360000Y-54438000D01*
X91400000Y-43705000D02*
X91400000Y-54295000D01*
X91440000Y-43853000D02*
X91440000Y-54147000D01*
X91480000Y-44005000D02*
X91480000Y-53995000D01*
X91520000Y-44163000D02*
X91520000Y-53837000D01*
X91560000Y-44326000D02*
X91560000Y-53674000D01*
X91600000Y-44495000D02*
X91600000Y-53505000D01*
X91640000Y-44671000D02*
X91640000Y-53329000D01*
X91680000Y-44855000D02*
X91680000Y-53145000D01*
X91720000Y-45048000D02*
X91720000Y-52952000D01*
X91760000Y-45250000D02*
X91760000Y-52750000D01*
X91800000Y-45465000D02*
X91800000Y-52535000D01*
X91840000Y-45695000D02*
X91840000Y-52305000D01*
X91880000Y-45941000D02*
X91880000Y-52059000D01*
X91920000Y-46210000D02*
X91920000Y-51790000D01*
X91960000Y-46507000D02*
X91960000Y-51493000D01*
X92000000Y-46845000D02*
X92000000Y-51155000D01*
X92040000Y-47247000D02*
X92040000Y-50753000D01*
X92080000Y-47771000D02*
X92080000Y-50229000D01*
X92120000Y-48960000D02*
X92120000Y-49040000D01*
X92120000Y-49000000D02*
G75*
G02*
X51880000Y-49000000I-20120000J0D01*
G01*
X51880000Y-49000000D02*
G75*
G02*
X92120000Y-49000000I20120000J0D01*
G01*
%TO.C,D1*%
X155081700Y-86500000D02*
X156101700Y-86500000D01*
X156101700Y-85030000D02*
X156101700Y-87970000D01*
X156101700Y-87970000D02*
X161541700Y-87970000D01*
X156881700Y-85030000D02*
X156881700Y-87970000D01*
X157001700Y-85030000D02*
X157001700Y-87970000D01*
X157121700Y-85030000D02*
X157121700Y-87970000D01*
X161541700Y-85030000D02*
X156101700Y-85030000D01*
X161541700Y-87970000D02*
X161541700Y-85030000D01*
X162561700Y-86500000D02*
X161541700Y-86500000D01*
%TO.C,D3*%
X145260000Y-130000000D02*
X146280000Y-130000000D01*
X146280000Y-128530000D02*
X146280000Y-131470000D01*
X146280000Y-131470000D02*
X151720000Y-131470000D01*
X147060000Y-128530000D02*
X147060000Y-131470000D01*
X147180000Y-128530000D02*
X147180000Y-131470000D01*
X147300000Y-128530000D02*
X147300000Y-131470000D01*
X151720000Y-128530000D02*
X146280000Y-128530000D01*
X151720000Y-131470000D02*
X151720000Y-128530000D01*
X152740000Y-130000000D02*
X151720000Y-130000000D01*
%TO.C,D2*%
X156340000Y-109000000D02*
X157360000Y-109000000D01*
X157360000Y-107530000D02*
X157360000Y-110470000D01*
X157360000Y-110470000D02*
X162800000Y-110470000D01*
X158140000Y-107530000D02*
X158140000Y-110470000D01*
X158260000Y-107530000D02*
X158260000Y-110470000D01*
X158380000Y-107530000D02*
X158380000Y-110470000D01*
X162800000Y-107530000D02*
X157360000Y-107530000D01*
X162800000Y-110470000D02*
X162800000Y-107530000D01*
X163820000Y-109000000D02*
X162800000Y-109000000D01*
%TO.C,J4*%
X201305000Y-107315000D02*
X202000000Y-107315000D01*
X201305000Y-108000000D02*
X201305000Y-107315000D01*
X201305000Y-108685000D02*
X201305000Y-109560000D01*
X201305000Y-108685000D02*
X201391724Y-108685000D01*
X201305000Y-109560000D02*
X201605507Y-109560000D01*
X202394493Y-109560000D02*
X202695000Y-109560000D01*
X202608276Y-108685000D02*
X202695000Y-108685000D01*
X202695000Y-108685000D02*
X202695000Y-109560000D01*
%TD*%
M02*
